<?xml version="1.0" encoding="UTF-8"?><svg id="Layer_2" xmlns="http://www.w3.org/2000/svg" viewBox="0 0 135.32 206.75"><defs><style>.cls-1{fill:#fff;}.cls-2{fill:#ce0a24;}</style></defs><g id="_1"><path id="barci_black" d="m107.54,102.89c.24-4.86.83-16.27,1.4-25.37,1.05,1.36,2.68,2.62,4.95,2.11,1.12-.25,3.7-.95,3.92-4.65.13-2.17-1.49-4.92-5.86-9.53-.25-.27-.6-.57-1.02-.86,2.5-2.33,6.47-6.31,8.41-9.81l.49-.88-.76-.66c-4-3.45-9.66-6.58-12.26-7.94-1.24-.7-2.31-1.25-3.23-1.69.16-.13.32-.25.49-.39,2.41-2.44,12.46-13.84,6.12-29.2C103.95-1.12,88.14-1.04,79.76.9c-3.05.81-5.9,2.35-7.21,3.12-5.44,3.59-9.67,9.08-10.97,15.59-1.41,7.08.79,14.95,6.1,19.95,1.06.99,1.46,1.26,1.67,1.13-.13.09.2-1.31,2.5-3.39.69-.62,4.74-4.17,10.35-2.28,3.16,1.06,4.6,2.71,5.63,4.97.5,1.1.77,2.49.73,3.75-.09.05-.19.09-.28.15-4.18,2.53-8.57,8.46-7.54,22.29,1.2,16.06,2.41,29.22,3.12,36.68-2.5.07-4.78.3-6.87.66,3.4-14.54,2.65-31.41-13.41-41.43-15.29-9.54-36.83-6.48-50.38,4.98C-.37,78.57-3.48,98.42,3.88,114.3c.65,1.41,1.37,2.78,2.16,4.11,2.35,3.95,5.33,7.51,9,10.29,3.74,2.82,8.04,4.77,12.49,6.16,2.77.87,5.6,1.53,8.44,2.08.36.07.63-.32.45-.63-.19-.33-.34-.65-.41-.77-.82-1.43-1.37-3.01-1.66-4.63-1.03-5.82.84-12.6,5.68-16.26,4.56-3.45,11.07-3.47,15.66-.04.79.59,1.5,1.27,2.12,2.03-2.72,5.84-2.62,12.24-1.86,16.4.53,2.88,1.11,3.88,1.48,5,2.48,7.64,9.17,15.69,11.49,18.66,3.5,4.46,13.51,14.91,17.19,18.72v15.54c-1.28.78-9.91,6.22-13.59,14.17-.39.84.35,1.75,1.3,1.6,6.5-.97,14.72-1.54,22.61-1.55,7.93,0,15.36.57,21.82,1.55.95.14,1.68-.77,1.29-1.6-3.69-7.96-12.34-13.41-13.59-14.17v-15.47c3.38-3.75,12.78-14.26,16.08-18.79,2.22-3.05,11.18-14.55,12.84-23.66,1.67-9.15.11-29.07-27.32-30.14Zm8.04-48.2c-1.57,2.39-4.24,4.84-6.09,6.39-.07-5.02-.97-8.76-2.28-11.54,4.8,1.77,8.38,5.15,8.38,5.15Z"/><path id="barci_red" class="cls-2" d="m114.29,73.54c.5.98.18,2.14-.72,2.61-.8.41-1.78.13-2.34-.61h0s-.03-.04-.07-.11c-.04-.06-.08-.13-.12-.2s-.07-.14-.09-.21c-.17-.37-.41-.95-.62-1.76-.31-1.19-.81-3.67-1.06-4.91-.09-.45-.13-.56-.06-.59.07-.04.13.05.45.38.92.93,2.78,2.84,3.43,3.66.55.7.88,1.19,1.08,1.52.05.07.1.15.14.23Zm-48.34-3.94c-4.55-4.29-10.61-6.97-16.56-7.96-16.24-2.72-34.06,4.39-41.36,19.52-6.19,12.83-3.54,30.55,6.49,40.75,4.6,4.68,9.33,7.33,15.28,8.61.16.03-.81-4,.2-8.34,1.15-4.91,3.52-10.71,10.41-13.42,10.53-4.14,16.61.95,20.22,3.49,2.3-2.58,3.95-3.59,6.39-4.88,1.9-1,3.12-1.41,4.92-1.82,2.08-4.65,3-13.6,2.08-18.52-1.17-6.23-2.03-11.75-8.07-17.44Zm40.17,50.56c-7.23-.65-10.23,5.79-10.33,6.01-.1-.21-3.09-6.66-10.33-6.01-7.36.66-12.29,9.65-2.32,23.59,9.65,13.48,12.46,14.11,12.64,14.14h0s0,0,0,0h0s0,0,0,0c.18-.03,2.99-.66,12.64-14.14,9.97-13.94,5.04-22.92-2.32-23.59Zm-13.31-78.72v.18c.02.22.04.39.06.54l.02.11s.02.02.03.03c2.35-.44,4.7-.38,6.58-.06h0c4.09-3.27,7.02-8.35,8.06-14.19,1.16-6.53-.33-12.69-4.1-16.91-4-4.48-9.23-6.75-15.54-6.75-.31,0-.59,0-.85.01-6.08.15-9.83,1.5-14.33,5.17-1.77,1.44-5.94,5.5-6.52,11.93-.32,3.52.09,6.09.5,7.62.07.28.14.53.2.77.35,1.43.59,2.38,2.07,4.5.02-.02.04-.04.06-.06,1.78-1.71,3.84-2.89,6.1-3.49,1.62-.43,3.32-.64,5.06-.61.74.01,5.18.6,8.26,3.06,4.08,3.26,4.26,6.44,4.35,8.14Z"/><path id="barci_white" class="cls-1" d="m94.66,68.47c.55-1.16,1.88-1.68,2.96-1.16.95.46,1.4,1.57,1.1,2.63h0s-.02.06-.06.15c-.03.09-.06.17-.1.26s-.08.16-.13.23c-.22.43-.6,1.05-1.21,1.83-.89,1.13-2.85,3.35-3.84,4.46-.36.41-.43.51-.51.48-.09-.04-.04-.16.04-.69.22-1.52.66-4.62.97-5.8.26-1.02.48-1.67.65-2.09.03-.1.07-.2.12-.3Zm7.71-13.18c0,3.42-2.76,6.19-6.17,6.19s-6.17-2.77-6.17-6.19,2.76-6.19,6.17-6.19,6.17,2.77,6.17,6.19Zm-3.39,0c0-1.54-1.25-2.79-2.79-2.79s-2.79,1.25-2.79,2.79,1.25,2.79,2.79,2.79,2.79-1.25,2.79-2.79Zm8.22-5.75c1.32,2.78,2.22,6.52,2.28,11.54,1.85-1.55,4.52-4,6.09-6.39,0,0-3.58-3.38-8.38-5.15Z"/><path class="cls-1" d="m53.41,68.37c-1.69,0-3.06,1.37-3.06,3.06s1.37,3.06,3.06,3.06,3.06-1.37,3.06-3.06-1.37-3.06-3.06-3.06Z"/><path class="cls-1" d="m62.04,82.15c1.69,0,3.06-1.37,3.06-3.06s-1.37-3.06-3.06-3.06-3.06,1.37-3.06,3.06,1.37,3.06,3.06,3.06Z"/><path class="cls-1" d="m65.07,86.86c-1.69,0-3.06,1.37-3.06,3.06s1.37,3.06,3.06,3.06,3.06-1.37,3.06-3.06-1.37-3.06-3.06-3.06Z"/><path class="cls-1" d="m21.51,115.18c-1.69,0-3.06,1.37-3.06,3.06s1.37,3.06,3.06,3.06,3.06-1.37,3.06-3.06-1.37-3.06-3.06-3.06Z"/><path class="cls-1" d="m14.95,106.23c-1.69,0-3.06,1.37-3.06,3.06s1.37,3.06,3.06,3.06,3.06-1.37,3.06-3.06-1.37-3.06-3.06-3.06Z"/><path class="cls-1" d="m15.44,98.53c0-1.69-1.37-3.06-3.06-3.06s-3.06,1.37-3.06,3.06,1.37,3.06,3.06,3.06,3.06-1.37,3.06-3.06Z"/><path class="cls-1" d="m13.84,90.49c1.69,0,3.06-1.37,3.06-3.06s-1.37-3.06-3.06-3.06-3.06,1.37-3.06,3.06,1.37,3.06,3.06,3.06Z"/><path class="cls-1" d="m19.75,80.84c1.69,0,3.06-1.37,3.06-3.06s-1.37-3.06-3.06-3.06-3.06,1.37-3.06,3.06,1.37,3.06,3.06,3.06Z"/><path class="cls-1" d="m29.74,68.24c-1.69,0-3.06,1.37-3.06,3.06s1.37,3.06,3.06,3.06,3.06-1.37,3.06-3.06-1.37-3.06-3.06-3.06Z"/><path class="cls-1" d="m41.66,65.93c-1.69,0-3.06,1.37-3.06,3.06s1.37,3.06,3.06,3.06,3.06-1.37,3.06-3.06-1.37-3.06-3.06-3.06Z"/><path class="cls-1" d="m62.9,97.68c-1.69,0-3.06,1.37-3.06,3.06s1.37,3.06,3.06,3.06,3.06-1.37,3.06-3.06-1.37-3.06-3.06-3.06Z"/></g></svg>