<?xml version="1.0" encoding="UTF-8"?>
<svg id="Layer_1" xmlns="http://www.w3.org/2000/svg" version="1.1" viewBox="0 0 408 177">
  <!-- Generator: Adobe Illustrator 29.8.2, SVG Export Plug-In . SVG Version: 2.1.1 Build 3)  -->
  <defs>
    <style>
      .st0 {
        fill: #ce0a24;
      }

      .st1 {
        fill: #efe4e0;
      }
    </style>
  </defs>
  <path d="M364.9,145.7l-3.2-61.8c-.3-4.9-4.4-8.7-9.4-8.4l-17.4.9c.6-1.3.9-2.8.8-4.3l-2.9-56c-.3-4.9-4.4-8.7-9.4-8.4L41.5,22.5c-4.9.3-8.7,4.4-8.4,9.4l2.9,56c.3,4.9,4.4,8.7,9.4,8.4l41.4-2.2c-.6,1.3-.9,2.8-.8,4.3l3.2,61.8c.3,4.9,4.4,8.7,9.4,8.4l257.9-13.5c4.9-.3,8.7-4.4,8.4-9.4Z"/>
  <g>
    <path class="st1" d="M147.1,146.4c-.6,0-1-.1-1.3-.4-.3-.3-.5-.6-.7-.9l-.5-.5c-.2-.3-.3-.5-.5-.8-.2-.3-.3-.5-.5-.9-.2-.2-.4-.6-.6-1.3-.2-.6-.5-1.1-.8-1.5l-.4-1.1-.9-1.5-2.5-5.4s0-.1-.2-.2-.2-.2-.2-.3l-.8-.6c0,0,0-.2-.4-.5-.4-.2-.7-.5-.9-.9l-1-1.8-2.4.2c-.6.2-1.3.3-2,.3-.7,0-1.2.1-1.7.2-.3,0-.7,0-1.2,0-.5,0-.9,0-1.4,0-.4,0-.8,0-1.2,0-.3,0-.5,0-.5,0h-1.2c0,.1-.1.3-.1.4v.7c0,.2,0,.2.1.3s0,.2-.4.6c-.2.6-.4,1-.6,1.4-.2.4-.5.8-.7,1.1s-.5.7-.7,1c-.2.3-.4.7-.5,1.1v2.3c0,.7-.2,1.4-.6,2.2-.4.8-.7,1.7-.8,2.5l-.4,2.2s0,0-.1.3c0,.2-.2.5-.3.8-.1.3-.3.6-.5.8-.2.3-.4.4-.7.4h-.7s0,0,0,0c0,0,0,0,0,0-.2,0-.3,0-.4-.2,0-.2-.1-.3-.1-.5l-.2-2.3c0-.2,0-.5,0-.8,0-.3.1-.6.2-.7l.9-12.9c0-.1,0-.4.2-.8.1-.4.2-.6.2-.7,0-.2-.2-.3-.5-.3-.3,0-.7-.1-1.1-.2-.4,0-.8-.2-1.1-.3-.3-.2-.5-.4-.5-.8,0-.5.4-.9,1.2-1.1.8-.2,1.7-.4,2.6-.6,0-.3,0-.7,0-1.1,0-.4.2-.7.2-1,0,0,0,0,.1-.4.1-.3.3-.7.4-1,.1-.4.3-.8.4-1.1.1-.4.2-.6.2-.7l3.1-7.1,2.1-3.8c0-.2,0-.4.3-.7.2-.3.4-.6.6-1,.2-.4.4-.8.6-1.3.2-.5.3-.9.2-1.5l1.1-2.3c0,0,.1-.2.2-.3,0-.1.2-.3.3-.4.2-.1.4-.2.6-.3.3,0,.6-.2,1.1-.2.1.2.3.3.6.3.3,0,.6.1.9.2.3,0,.6.2.9.3.3.1.6.3.8.6l2.4,3.1c0,0,.2.3.4.5.2.3.4.6.6.9.2.3.4.6.5.9.2.3.3.5.4.6l4.6,5.7s.1,0,.2.2.1.3.1.3l.8,1.4s.1.2.3.5c.1.3.2.5.3.5.1.3.4.7.9,1.2.5.5.7,1.1.8,1.8,0,.1.1.4.4.8.2.4.5.8.8,1.4.3.5.5,1,.8,1.5.2.5.4,1,.4,1.3l1.3,5.9.2,3.1c0,.3,0,.9,0,1.7,0,.8,0,1.7,0,2.6,0,.9,0,1.8,0,2.6,0,.8,0,1.4.1,1.7l.2,1.9c-.2.7-.3,1.3-.4,1.7-.1.4-.5.7-1.2.9ZM125.7,123c.2,0,.4,0,.6,0,.2,0,.4,0,.6,0,.5,0,1,0,1.7-.1.7,0,1.3-.2,1.9-.3.6-.1,1.1-.3,1.6-.5.5-.2.9-.4,1.1-.6,0-.4,0-.7,0-1,0-.3,0-.5-.1-.8,0-.3-.2-.6-.4-1-.2-.4-.4-.8-.7-1.4l-.8-1.5c-.1-.2-.2-.5-.3-.9,0-.3-.2-.7-.4-.9-.2-.3-.3-.5-.6-.7-.2-.2-.5-.3-.9-.3,0,0-.2.3-.4.5-.2.3-.4.5-.4.6,0,.3-.2.6-.5.8-.4.2-.6.5-.5.7l-.5,1.1c-.1.2-.3.5-.5.7,0,.6,0,1,0,1.4,0,.4-.1.7-.2,1.1,0,.4-.1.8-.2,1.2,0,.5,0,1,0,1.8Z"/>
    <path class="st1" d="M171.2,144.5c0-.5-.1-1-.2-1.3-.1-.4-.2-.8-.2-1.2,0,0,0-.2-.2-.8-.2-.6-.3-1.4-.3-2.3v-1.5c-.1-.7-.1-1.4,0-2.1,0-.7,0-1.4,0-2.1,0,.2,0,0,0-.7,0-.6,0-1.3,0-2.1v-2c-.1-.5-.2-.9-.3-1.1s-.2-.5-.2-.8c0-.3-.2-.7-.2-1.3,0-.5-.2-1.3-.2-2.5,0-.2,0-.8-.1-1.8,0-1-.4-2.2-1-3.7-.3-.7-.6-1.3-.8-1.6-.3-.4-.5-.6-.8-.8-.2-.2-.4-.3-.6-.3-.2,0-.3,0-.5,0-.2,0-.4,0-.6,0-.2,0-.4.1-.6.3l-1.2,1.2c0,0-.2.2-.4.3-.2,0-.4.3-.5.8l-1.3,1.6c0,.1,0,.3-.2.5-.1.2-.3.4-.4.7-.1.2-.3.4-.4.6-.1.2-.2.3-.2.3l-.7,1.9c-.1.3-.2.6-.2.9,0,.2,0,.5-.1.7,0,.2,0,.3,0,.5,0,.2,0,.3,0,.5v.9c0,0,0,.2.1.5,0,.3,0,.5.1.8,0,.3,0,.6.1.9,0,.3,0,.4,0,.5,0,1.3.1,2.4.1,3.2,0,.8,0,1.5,0,2.1,0,.6,0,1.1-.1,1.4s-.1.7-.2,1c-.2.8-.5,1.6-.8,2.3-.3.7-.6,1.4-.9,2.1l-.2.5c0,0-.1.3-.2.7,0,.4-.1.8-.2,1.2,0,.4-.2.8-.4,1.1-.2.3-.4.5-.8.5-.2,0-.3,0-.3,0,0,0-.1,0-.3,0l-1-1.8c0-.1,0-.3-.1-.4,0-.2-.1-.3-.1-.5l-.5-3.5s0-.1,0-.3c0-.1-.1-.3-.2-.5,0-.2-.1-.3-.1-.5,0-.2,0-.3,0-.3,0,0,0-.5-.2-1.2-.1-.7-.5-1.6-.9-2.5,0,0,0-.3,0-.7,0-.4,0-.8-.1-1.2,0-.4-.1-.8-.2-1.2,0-.3-.1-.6-.2-.6v-1c-.3-.8-.4-1.7-.5-2.6,0-1,0-1.8-.1-2.5,0-.9,0-1.9-.1-2.8,0-.9,0-1.8.2-2.8l.4-3.1c0-.2.1-.5.1-.8,0-.4,0-.7,0-1.1,0-.4.2-.7.4-1,.2-.3.5-.5.9-.5.3,0,.7,0,1.2.3.4.2.7.5.7.9l.9,1.1c.1.1.3.3.6.7.3.3.4.6.5.9l1,1.7c0,.2,0,.3.1.4,0,.1.2.3.2.5.2-.5.5-1,.9-1.4.4-.4.6-.8.7-1,.1-.2.3-.5.6-.9.3-.4.6-.8,1-1.2.3-.4.7-.8,1.1-1.1.4-.4.8-.6,1.2-.8l1.2-.9c.2,0,.4-.1.8-.2.2,0,.5,0,.9,0,.4,0,.7,0,1.1.2.4,0,.8.2,1.3.2l3.3,1.3c.2,0,.4,0,.5.2.1,0,.3.2.4.3.2.1.4.2.6.4s.6.4,1.1.6c.1.1.3.3.6.6.2.3.5.5.8.8.3.2.5.5.8.6.2.2.4.3.5.3,0,0,.2,0,.4.2.2.2.3.4.5.6.1.2.3.4.4.6.1.2.2.3.3.3l.9,1c.1.2.4.3.7.6.3.2.5.4.5.6,0,.5,0,1,.3,1.4s.4,1,.4,1.6v.9c.2.3.3.6.4.9s.2.6.4.9v.6c0,.2.1.4.2.8,0,.4,0,.6,0,.7,0,.3,0,.7-.2,1.2s-.3.8-.5,1l-.5,1.7c0,.2,0,.4-.2.7-.1.3-.3.5-.6.8-.2.2-.5.5-.7.8-.2.3-.4.5-.6.7,0,0-.1.3-.3.7-.2.4-.3.6-.4.7,0,0,0,.2-.1.2l-1.6,3.2c-.1.3-.3.6-.5.9l-.4.4-.6,1.4-.6,1c0,.4-.1.9-.5,1.5-.4.6-.8,1-1.2,1.1-.4,0-.7-.1-.8-.5-.2-.3-.4-.6-.5-1Z"/>
    <path class="st1" d="M209.2,139.5c-.3.1-.7.3-1.1.5-.4.2-.7.4-1,.7l-.7.7-.7.5h0c0,0-.2,0-.3.1-.1,0-.3.1-.3.2-.5.2-.9.4-1.4.5-.5.1-.9.2-1.3.2h-.7s-.8,0-.8,0c0,0-.1,0-.3,0-.1,0-.4,0-.9,0h-.9s-3.6-.4-3.6-.4c-.5,0-.9,0-1.2-.3s-.7-.4-1.1-.6c-.5,0-.9-.2-1.4-.5-.5-.3-.9-.7-1.3-1.2-.4-.5-.8-1-1.2-1.6-.4-.6-.7-1.1-.8-1.6-.2-.5-.5-.9-.8-1.4-.3-.4-.6-.9-.8-1.4v-.6c-.2-.5-.3-1-.5-1.7-.2-.6-.3-1.3-.4-2v-.8s0-.9,0-.9c.1-.4.2-.8.3-1.2,0-.4.2-.8.4-1.3.1-.2.2-.5.3-.7,0-.2.2-.4.2-.6,0-.2.2-.4.2-.5l.5-.7c.3-.4.6-.8,1-1.2.3-.4.7-.8,1.1-1.2l.5-.7c.6-.2,1-.5,1.4-.8.4-.3,1.1-.6,2-.7l.8-.4c0,0,.3-.1.5-.1.3,0,.5,0,.5,0h2.2s.2,0,.4,0c.2,0,.5,0,.7,0,.2,0,.5,0,.7,0,.2,0,.3,0,.4,0h1c.8,0,1.6.2,2.4.3s1.6.3,2.4.4l.8.3c.2,0,.5,0,.7.1.2.1.4.2.6.3v-.5c0,0,0-.2,0-.3s0-.3,0-.3v-.7s0-.1,0-.3c0-.2,0-.4-.1-.6,0-.2,0-.4-.1-.5,0-.2,0-.3,0-.4,0,0,0-.1,0-.3,0-.2,0-.3,0-.6s0-.4,0-.6c0-.2,0-.3,0-.4,0-.5-.2-1-.5-1.4-.3-.5-.6-.9-1.1-1.3-.4-.4-.8-.7-1.3-.9-.4-.2-.8-.3-1.2-.3h-3.1c-.2,0-.5,0-.8.1-.3,0-.5.2-.7.4l-1.5.8c0,0-.2,0-.5.2-.3.1-.5.2-.8.2l-.7.5c0,0-.1.1-.2.2,0,0,0,.2-.2.2,0,0-.2.2-.3.3-.2.1-.4.2-.6.2l-.5-.5c-.1-.2-.2-.3-.2-.4,0,0,0-.1,0-.1v-1c0-.1,0-.3,0-.6,0-.3.2-.5.4-.8.2-.2.4-.5.6-.7.2-.2.5-.3.7-.3l1.6-1.2c.4-.2.8-.4,1.2-.5.3-.1.8-.3,1.2-.5h.1c.4-.1.8-.2,1.1-.3.3,0,.7-.2,1-.2.4,0,.7-.1,1-.1.3,0,.9,0,1.6.3s1.6.4,2.6.6c.4,0,.8,0,1.3.3.4.2.8.4,1,.3h.3c.6.4,1.2.6,1.9.8.6.2,1.2.6,1.7,1.1l1.6,1.7c.3.3.6.6.8.8.2.2.4.4.5.6l.3.4c0,.2.2.3.3.4,0,.1.2.2.3.4.5.7.8,1.2,1,1.5s.4.6.5.8l.2.3c.2.4.5.8.7,1.3.2.5.3.9.3,1.3h0c0,.4.2.7.4.9.2.3.3.5.3.8v.5c0,.5.2,1,.4,1.7.2.7.4,1.3.4,1.9v.4c0,.2,0,.5.2.9.1.4.2.6.3.7,0,.1,0,.4,0,.8,0,.4,0,.6,0,.7l.4,2.8c0,.4,0,.7-.2,1-.2.3-.4.6-.6,1,0,0-.2.3-.3.6s-.2.6-.2.7l-.9,1.4c-.2.2-.4.4-.5.6-.1.2-.2.4-.4.6l-.7,1.3-.7,1c0,0-.2.2-.3.4s-.1.3-.1.4l-1.3,1.4c0,0-.2.2-.4.4-.2.2-.4.3-.7.5-.2.2-.5.3-.6.5s-.3.3-.3.3l-.6,1.1c-.1.4-.4.7-.7,1-.4.3-.5.5-.6.5-.4,0-.7-.2-1-.5-.3-.4-.5-.8-.5-1.2,0,0,0-.1,0-.2,0,0,0,0,0-.1v-1.9c0-.3-.1-.7-.2-1.2-.1-.5-.2-.7-.3-.7ZM194,132.6c0,0,0,.2,0,.5,0,.2,0,.4,0,.5l.3.8c0,.3,0,.7.2,1.1.1.4.3.8.6,1.1l1.3,1c.2.1.5.3.9.4h.6c.3,0,.6,0,1,.3.4.2.9.3,1.6.3.2,0,.6,0,1-.1.4,0,.8-.1,1.1-.1h.5c.2,0,.5-.2,1-.5.5-.3,1-.5,1.3-.8l2.9-2.4v-.4s0-1,0-1c0-.3,0-.7,0-1.1s0-1.2,0-2c0-.5,0-.8,0-.9,0-.1,0-.4,0-1v-1.2c0-.1,0-.3,0-.6,0-.3,0-.6,0-.9,0-.3,0-.6,0-.9,0-.3,0-.5,0-.6-.1-.5-.2-.8-.3-1,0-.2,0-.4,0-.4s0,0,0,0c0,0,0,0,0,0l-1.7-.7c0,0-.2,0-.3,0,0,0-.2,0-.3,0l-1.6-.3h-1c-.3,0-.5.1-.7.2-.2,0-.5.1-.8.1l-.8.8-1.5.6c-.3,0-.6,0-.9.2-.3.1-.5.3-.7.4-.2.2-.5.3-.7.5-.2.2-.5.3-.8.3l-.5.3c-.5.4-.9.9-1.1,1.4-.2.5-.4,1-.4,1.4,0,.2,0,.4,0,.6,0,.2,0,.4,0,.6l.2,1.7c-.1.2-.2.5-.3.9,0,.4-.1.7,0,1Z"/>
    <path class="st1" d="M230.9,141.1c-.4-.3-.7-.6-.8-.9-.2-.3-.3-.6-.4-1.1-.3-.4-.6-.9-.8-1.4s-.4-1.1-.6-1.6-.3-.9-.4-1.3-.2-.6-.2-.7c-.3-.4-.5-1.1-.5-1.9,0-.8-.1-1.5-.2-2.2l-.4-4c0-.6-.2-1.1-.4-1.7s-.3-1.1-.4-1.7v-1c-.2-.6-.3-1.2-.4-1.7-.1-.5-.2-1-.3-1.6v-1.4c-.1-.6-.2-1.3-.2-1.9s-.1-1.3-.2-1.8c0-.5,0-1-.1-1.3,0-.3,0-.5,0-.5l-.2-2.9c0-.2,0-.5,0-.9,0-.2,0-.4.1-.6v-1c-.1-1.5-.2-2.9-.2-4.3s0-2.5.4-3.5l.3-2.4c0-.3.1-.7.2-.9.1-.3.3-.6.4-.9,0,0,0-.2,0-.5,0-.3,0-.6.2-1,.1-.3.2-.7.4-1,.2-.3.4-.5.7-.6.3,0,.6,0,.9.3s.5.5.7.8c.2.3.4.6.5.9.1.3.2.4.2.5l.6.8c.2.3.3.6.3,1,0,.3.1.6.4.8,0,0,0,.1,0,.2,0,0,0,0,0,.1l.9.8c.3.2.5.5.8,1,.2.4.4.8.5,1,0,0,.1,0,.2.2s0,.4,0,.6c0,.2,0,.5.1.8,0,.3.1.5.3.7l.4,4.5c.2.4.4.9.5,1.4.1.6.2,1.1.2,1.5v1.2c0,.4.1.7.2,1,0,.3.1.5.1.7v2.3c.1.2.1.3.2.4,0,.1,0,.3,0,.6,0,0,0,.2,0,.3,0,0,0,.2,0,.3v.3s0,1.4,0,1.4c0,.1,0,.4,0,.7,0,.3,0,.7,0,1.1,0,.4,0,.8,0,1.1,0,.4,0,.6,0,.7l-.4,2.1c0,0-.2.3-.4,1-.2.7-.6,1.5-1.1,2.4-.1.2-.2.4-.2.7,0,.2,0,.5-.1.7l-.3.7c0,.3,0,.6-.1.9s0,.6,0,.9c0,1.1,0,2.1-.2,3.1,0,1-.2,1.9-.5,2.7,0,.2,0,.6-.2,1.1-.2.5-.2,1.1-.2,1.8,0,.3.1.5.2.6,0,.3-.1.5-.2.8,0,.3-.2.5-.5.5-.1,0-.2,0-.2,0Z"/>
    <path class="st1" d="M246.9,153.1c0-.4,0-.8.1-1,.1-.2.2-.5.2-.8l.3-1.8c0-.1,0-.3.1-.7.1-.3.2-.6.3-.7l.2-1.7,1.2-6.2,2-6.8c0-.5,0-.9.3-1.4.2-.5.3-1.1.3-1.7l-6.5-5.9c-.5-.4-.8-.9-1-1.3-.2-.4-.6-.8-1-1.2l-1.6-2.1c-.2-.3-.6-.9-1.1-2-.5-1-1.1-2.1-1.7-3.3,0-.3-.1-.5-.3-.6l-1.3-3.8s0-.2,0-.4c0-.2,0-.4,0-.5,0-.5,0-.8.2-1,.2-.1.4-.2.6-.2,0,0,0,0,0,0,0,0,0,0,0,0s0,0,.1,0c0,0,0,0,.1,0h.3s1.7.6,1.7.6c.2.1.5.4.8.7.3.4.7.7,1.1.9,0,0,.1.1.4.6.2.4.6,1,.9,1.6.4.7.8,1.3,1.3,2,.5.7,1,1.3,1.5,1.7l1.5,2.1c0,.2.2.4.4.6.2.2.3.4.5.6.3.3.5.7.6,1.3,0,.6.3,1,.6,1.3.2.2.4.5.7.9s.6.9.9,1.4c.3.5.7.9,1,1.2.3.4.6.5.9.5.3-.7.6-1.3.9-1.9.2-.5.5-1.1.7-1.6.2-.5.4-.9.5-1.1,0,0,0-.2,0-.4,0-.2,0-.4.1-.6,0-.2.1-.4.2-.6,0-.2.1-.3.2-.4l3.6-8.7c.2-.7.4-1.3.7-1.8.3-.5.6-1,.9-1.6.2-.5.5-.8.7-1.1.2-.2.4-.5.7-.7.3-.2.5-.4.7-.4.5,0,.9,0,1.2.3.4.2.7.5.9.9l1.3,2c0,0,0,.3.2.6.1.3.2.5.2.6l1.4,2.4.4,1.6v.6s-.1,1.2-.1,1.2v1.4c0,0,0,.2,0,.2,0,.7,0,1.5-.3,2.4.1,2.3-.7,5.1-2.4,8.3,0,.3,0,.6-.3.9s-.4.6-.6.9-.4.7-.7,1c-.2.3-.4.7-.5.9l-2.4,3.7c0,0-.2.3-.5.6-.2.3-.5.6-.8,1s-.5.7-.7,1c-.2.3-.3.5-.3.6l-.6.8c-.2.2-.4.4-.6.6-.2.2-.4.4-.7.7l-1.4,1.4c0,0-.2.2-.3.3-.2.1-.3.2-.4.3l-.7,1.1c-.1.2-.3.4-.5.5-.2.1-.3.3-.5.5,0,.1-.3.3-.6.6s-.6.6-1,.9c-.3.4-.7.8-1,1.3-.3.5-.6,1.1-.8,1.7l-.3.9c0,.1-.2.4-.3.8,0,.4-.3.8-.5,1.2s-.5.8-.8,1.1-.7.5-1.2.5c-.2,0-.3-.2-.4-.5Z"/>
    <path class="st1" d="M275.4,137.6c0,0-.2-.2-.7-.4-.5-.2-.8-.5-1-.8l-.5-1.1c-.5-.4-.8-.9-.9-1.5s-.2-1.2-.3-1.7c0-.1,0-.2,0-.3,0,0,0-.2,0-.4v-.4c0-.2.2-.5.7-.8.4-.3.8-.5,1.2-.6.2,0,.3,0,.4,0,0,0,.2,0,.4,0,.1,0,.3,0,.5.1s.5.1.8.2c.3.1.5.2.8.4.2.2.3.4.4.6,0,.2,0,.4-.2.5-.2.1-.3.3-.2.5,0,.7.4,1.3,1.1,1.9.7.6,1.6.9,2.6.8l3.4-.4c.2,0,.4-.1.7-.3.3-.2.6-.5.9-.9l.4-.6.5-1.2c0,0,0-.2,0-.5,0-.3,0-.5,0-.7v-.4c-.1-.2-.2-.4-.2-.4l-.6-.9c0-.3-.1-.7-.4-1-.2-.3-.5-.6-.8-.9-.3-.3-.7-.5-1-.8-.3-.3-.7-.4-.9-.6l-1.3-.7c-.1,0-.2,0-.3-.1s-.2-.1-.3-.2l-.7-.4c0,0-.2-.1-.5-.2s-.4-.2-.4-.3h0c-.2,0-.5,0-.7-.3,0,0-.3,0-.6-.2-.3-.1-.7-.3-1-.6-.4-.3-.8-.6-1.2-1-.4-.4-.7-.8-.9-1.3,0-.4-.1-.7-.3-.7-.2,0-.3-.1-.5-.3-.2-.2-.4-.5-.5-1.1-.2-.6-.3-1.6-.4-3v-1.7c.3-.3.4-.7.5-1,.1-.3.2-.7.4-1,.1,0,.2-.2.4-.7.2-.5.6-1.2,1.2-1.9l.6-.6c0,0,.2-.2.4-.4.2-.2.4-.3.7-.5.2-.2.5-.3.7-.4.2-.1.5-.2.7-.2l1.4-.6c.4-.3.9-.5,1.2-.6.4,0,.8-.2,1.3-.2.3,0,.7,0,1,0,.3,0,.5.1.7.1.2,0,.3,0,.4,0,.6,0,1.2.1,1.8.4.6.3,1.1.4,1.5.4l1.9.4c.8.3,1.2,1.1,1.3,2.3,0,.2,0,.5-.2.8-.1.3-.3.6-.6.8-.2.3-.5.5-.8.7-.3.2-.7.3-1,.3-.2,0-.5-.2-.9-.5s-.6-.5-.6-.7l-.6-.4s0-.1-.2-.3-.4-.3-.6-.5c-.3-.2-.6-.3-.9-.5-.3-.1-.7-.2-1.1-.2-.2,0-.6,0-.9.1-.4,0-.8.1-1.1.3s-.7.3-1,.4c-.3.2-.5.4-.6.6l-1.4,1.9c-.2.3-.3.7-.3,1,0,.3,0,.6,0,.8,0,0,0,.2,0,.4,0,.2,0,.2.2.2l.4.6s.1.1.3.2c.2,0,.2.2.2.2l.7.4c0,0,.2.1.3.2.1,0,.2,0,.3.1h1.7c.4.1.8.2,1.2.3.5.1,1,.2,1.6.3h.1c1.2,0,2.5.2,3.9.7,1.4.5,2.9,1.4,4.3,2.6.6.4,1,.9,1.3,1.4.3.5.7,1,1.1,1.6l.7,1.2c.2.6.3,1.1.4,1.7,0,.5.1,1.1.4,1.7v1c0,.8,0,1.6-.2,2.4-.2.8-.5,1.4-.8,1.8l-2.5,2.9c-.2.2-.4.3-.7.4-.3,0-.5.2-.8.4l-2.4,1.3c-.6,0-1.1.2-1.3.4-.3.3-.6.4-1,.5l-2.6.3c-.8,0-1.5.1-2.2.1-.7,0-1.3,0-2,0-.5,0-.9,0-1.4-.2s-.9-.2-1.3-.2h-.3c-.4-.1-.7-.2-1-.3s-.5-.2-.8-.2c-.2,0-.4,0-.5,0Z"/>
    <path class="st1" d="M301.4,93.8c0,0-.2-.1-.3-.2-.1-.1-.3-.2-.4-.4-.2-.2-.3-.3-.5-.4-.1-.1-.2-.2-.3-.3,0,0-.2,0-.2-.1,0,0-.2-.1-.2-.3s-.1-.5-.2-.9-.1-1-.2-1.8v-.8c0-.2,0-.4,0-.5.1-.1.1-.3.1-.6,0,0,0-.2,0-.4,0-.2.1-.5.3-.7.1-.3.3-.5.5-.7s.4-.3.7-.4c0,0,.2,0,.5,0,.3,0,.4,0,.5,0,.2,0,.4,0,.6-.2s.5-.1.8-.2c.4,0,1,0,1.7.2.7.2,1.3.4,1.6.7l.7.3c.2.2.5.5.8.9.3.4.5.9.5,1.5,0,.3,0,.6,0,.9,0,.4,0,.7-.1,1.2,0,.4-.2.8-.3,1.2-.1.4-.3.6-.4.8,0,.5-.2.8-.4,1.1-.2.3-.5.5-.7.6-.3.1-.5.2-.7.3-.2,0-.4,0-.5,0-.2,0-.4,0-.5,0-.1,0-.3,0-.6,0,0,0-.4-.1-.9-.2-.5,0-.9-.1-1.3-.3l-.6-.4ZM306.3,134.7c0-.3-.2-.7-.4-1.2-.3-.5-.4-1.1-.4-1.7l-1.9-4-2.5-6.7c0,0,0-.3-.2-.7-.1-.4-.2-.6-.2-.7,0,0,0-.2-.1-.4,0-.2,0-.5-.1-.8,0-.3,0-.6-.1-.8,0-.2,0-.4-.1-.5v-1c0-.2,0-.4-.1-.7,0-.3,0-.5-.2-.7l-.2-4c0-1,.1-1.9.4-2.7.3-.8.6-1.6.8-2.6l.3-.8c0-.5.2-.9.5-1.3s.6-.7.6-.9l.3-.9c0-.3.1-.6.4-.8.3-.2.5-.5.5-.8l.2-.5s0,0,.2-.1.1-.2.2-.2c.3,0,.5,0,.6.1.1,0,.2.2.3.3,0,.1.2.3.4.5.1.2.4.4.7.6l1.4,1.2c.3.5.6,1,.9,1.4.4.4.7.9,1,1.4.5.4.8.9.9,1.6.2.7.3,1.2.4,1.7l.4,1.3c.1.5.2.8.2,1.1s0,.5.1.8,0,.4,0,.6,0,.4,0,.7c-.1.5-.2,1.3-.2,2.4,0,1.1,0,2.3.1,3.5v1.7c.1.5.1,1,.1,1.4,0,.4,0,1-.2,1.6-.1.6-.3,1.3-.6,2.1-.3.8-.7,1.7-1.1,2.9,0,.2-.1.4-.1.6,0,.2,0,.4-.1.6,0,.2-.1.4-.1.6,0,0,0,.1,0,.2,0,0,0,.1,0,.3,0,.5-.1,1-.4,1.5-.3.5-.4,1.1-.5,1.5,0,1.5,0,2.6-.2,3.1-.2.5-.6.9-1,1.1-.3,0-.5-.3-.8-1-.2-.7-.4-1.3-.4-1.9Z"/>
    <path class="st1" d="M320.1,135.3c0,0-.2-.2-.7-.4-.5-.2-.8-.5-1-.8l-.5-1.1c-.5-.4-.8-.9-.9-1.5s-.2-1.2-.3-1.7c0-.1,0-.2,0-.3,0,0,0-.2,0-.4v-.4c0-.2.2-.5.7-.8.4-.3.8-.5,1.2-.6.2,0,.3,0,.4,0,0,0,.2,0,.4,0,.1,0,.3,0,.5.1s.5.1.8.2c.3.1.5.2.8.4.2.2.3.4.4.6,0,.2,0,.4-.2.5-.2.1-.3.3-.2.5,0,.7.4,1.3,1.1,1.9.7.6,1.6.9,2.6.8l3.4-.4c.2,0,.4-.1.7-.3.3-.2.6-.5.9-.9l.4-.6.5-1.2c0,0,0-.2,0-.5,0-.3,0-.5,0-.7v-.4c-.1-.2-.2-.4-.2-.4l-.6-.9c0-.3-.1-.7-.4-1-.2-.3-.5-.6-.8-.9-.3-.3-.7-.5-1-.8-.3-.3-.7-.4-.9-.6l-1.3-.7c-.1,0-.2,0-.3-.1s-.2-.1-.3-.2l-.7-.4c0,0-.2-.1-.5-.2s-.4-.2-.4-.3h0c-.2,0-.5,0-.7-.3,0,0-.3,0-.6-.2-.3-.1-.7-.3-1-.6-.4-.3-.8-.6-1.2-1-.4-.4-.7-.8-.9-1.3,0-.4-.1-.7-.3-.7-.2,0-.3-.1-.5-.3-.2-.2-.4-.5-.5-1.1-.2-.6-.3-1.6-.4-3v-1.7c.3-.3.4-.7.5-1,.1-.3.2-.7.4-1,.1,0,.2-.2.4-.7.2-.5.6-1.2,1.2-1.9l.6-.6c0,0,.2-.2.4-.4.2-.2.4-.3.7-.5.2-.2.5-.3.7-.4.2-.1.5-.2.7-.2l1.4-.6c.4-.3.9-.5,1.2-.6.4,0,.8-.2,1.3-.2.3,0,.7,0,1,0,.3,0,.5.1.7.1.2,0,.3,0,.4,0,.6,0,1.2.1,1.8.4.6.3,1.1.4,1.5.4l1.9.4c.8.3,1.2,1.1,1.3,2.3,0,.2,0,.5-.2.8-.1.3-.3.6-.6.8-.2.3-.5.5-.8.7-.3.2-.7.3-1,.3-.2,0-.5-.2-.9-.5s-.6-.5-.6-.7l-.6-.4s0-.1-.2-.3-.4-.3-.6-.5c-.3-.2-.6-.3-.9-.5-.3-.1-.7-.2-1.1-.2-.2,0-.5,0-.9.1-.4,0-.8.1-1.2.3s-.7.3-1,.4c-.3.2-.5.4-.6.6l-1.4,1.9c-.2.3-.3.7-.3,1,0,.3,0,.6,0,.8,0,0,0,.2,0,.4,0,.2,0,.2.2.2l.4.6s.1.1.3.2c.2,0,.2.2.2.2l.7.4c0,0,.2.1.3.2.1,0,.2,0,.3.1h1.7c.4.1.8.2,1.2.3.5.1,1,.2,1.6.3h.1c1.2,0,2.5.2,3.9.7s2.9,1.4,4.3,2.6c.6.4,1,.9,1.3,1.4.3.5.7,1,1.1,1.6l.7,1.2c.2.6.3,1.1.4,1.7,0,.5.1,1.1.4,1.7v1c0,.8,0,1.6-.2,2.4-.2.8-.5,1.4-.8,1.8l-2.5,2.9c-.2.2-.4.3-.7.4s-.5.2-.8.4l-2.4,1.3c-.6,0-1.1.2-1.3.4-.3.3-.6.4-1,.5l-2.6.3c-.8,0-1.5.1-2.2.1s-1.3,0-2,0c-.5,0-.9,0-1.4-.2s-.9-.2-1.3-.2h-.3c-.4-.1-.7-.2-1-.3s-.5-.2-.8-.2c-.2,0-.4,0-.5,0Z"/>
  </g>
  <g>
    <path class="st1" d="M61.4,80.1c-.2,0-.4,0-.6,0-.2,0-.4,0-.6,0h-.2c-.1,0-.3,0-.4,0-.1,0-.2,0-.2-.3-.1,0-.2,0-.3,0,0,0-.2,0-.4,0-.3,0-.7,0-1.2-.2-.5-.1-.8-.2-.9-.1-.2,0-.5,0-.9,0-.4,0-.8-.1-1.3-.3-.4-.1-.8-.4-1.1-.6-.3-.3-.5-.6-.5-1.1v-.4c.7-.6,1.6-.9,2.5-.9.3,0,.6,0,.9,0,.3,0,.7,0,1.1.1,0-.2,0-.4-.2-.8-.1-.4-.3-.8-.4-1.3-.1-.4-.2-.9-.4-1.3-.1-.4-.2-.7-.2-.8,0-.3-.1-.5-.2-.8,0-.2,0-.5,0-.8l-.8-3.6-.8-5.6v-2.9c-.1-.3-.1-.7-.2-1.3,0-.6,0-1.2-.1-1.8s0-1.2-.1-1.6c0-.5,0-.8,0-.9l-.4-2.1v-3.4c-.2-.9-.1-1.6,0-2.2,0-.6.2-1.2.3-1.8,0-.6.2-1.2.2-1.9,0-.7,0-1.5,0-2.6,0-.2-.1-.4-.4-.4s-.4-.2-.5-.3c.1,0,0,0-.2-.1-.3,0-.6-.2-1-.3-.4-.1-.7-.3-1.1-.5-.3-.2-.5-.4-.5-.7,0-.4,0-.6.2-.8.2-.2.5-.3.8-.4.3,0,.7-.2,1.1-.2.4,0,.7,0,1,0l1.8-.4c.2,0,.6,0,1.2-.2.6,0,1-.2,1.1-.3h2c0,0,.2,0,.4.1.2,0,.3,0,.4,0h1s.6,0,.6,0h1.5c0,0,.3-.1.5-.2.3,0,.4-.1.5-.1h2.1c.6,0,1.3,0,2.3.2.9.2,1.9.3,2.8.5l3.8,1s.1,0,.3.1c.1,0,.2,0,.3,0,1,.4,2,.8,2.9,1.2.9.4,1.8.9,2.6,1.6l2.1,1.7c.1.2.4.4.8.8.4.4.7.7.8.8l4.2,5c.2.2.4.4.6.7s.5.7.7,1.3c.2.6.4,1.3.6,2.3.2.9.3,2.1.4,3.4,0,.6,0,1.1-.2,1.6-.1.5-.2,1.1-.1,1.7l-.3,1.5c0,.1,0,.4-.1.7,0,.4-.2.8-.4,1.3-.2.5-.4,1-.6,1.4-.2.5-.5.9-.8,1.3-.2.1-.4.3-.6.6s-.3.5-.5.8c-.1.3-.3.6-.5.8-.2.3-.4.5-.7.6l-.5.9-1.4,1.5-.8.9c0,.1-.1.2-.2.4,0,.2-.2.3-.4.6.1-.2,0-.1-.1.3-.2.4-.6.8-1,1.4-.4.5-.9,1.1-1.4,1.6-.5.5-1,.8-1.5.8-.1,0-.4.2-.9.6-.5.4-.9.7-1.2.9l-.9.8c-.3.2-.7.4-1,.5s-.7.3-1,.4c-.5.6-1.2,1-2.1,1.1-.8.1-1.9.2-3.2.3h-.9c-.2,0-.5,0-.8,0s-.5,0-.8,0c-.3,0-.6,0-.9.2-.3.1-.7.2-1.2.2-.7,0-1.3,0-1.7,0-.4,0-.9-.1-1.5-.1ZM67.5,73.1c0,.1,0,.3,0,.4,0,.5.2.7.4.8.3.1.4.2.5.2.7,0,1.3-.1,1.8-.3.6-.2,1.1-.4,1.6-.7.5-.3,1-.5,1.4-.7.5-.2.9-.3,1.4-.4.2,0,.5-.2.8-.4s.6-.3.7-.3c.2,0,.5-.1.7-.4.2-.2.5-.5.7-.9.2-.4.5-.7.7-1.1.2-.4.4-.7.5-.9l2-2.6s.1-.2.2-.4c.1-.2.3-.5.4-.7.1-.2.3-.5.4-.8.1-.3.2-.4.3-.6.3-.3.5-.8.7-1.3.2-.5.3-1,.4-1.6.1-.5.2-1,.3-1.4,0-.5.1-.8.2-1,0-1.2-.1-2.3-.2-3.3,0-1.1-.3-2.3-.6-3.6v-.2c0-.3,0-.5-.1-.8,0-.3-.1-.5-.2-.8,0,0-.2-.2-.5-.6-.3-.4-.7-.9-1-1.5-.4-.6-.7-1.2-1.1-1.7-.4-.6-.6-1.1-.7-1.4l-2.7-2.5c-.4,0-.7-.2-1-.3-.6-.2-1-.4-1.3-.6l-1.9-.8c-.3-.2-.8-.4-1.5-.6-.8-.1-1.6-.2-2.4-.3-.3,0-.7.1-1.2.3s-.7.3-.8.3c0,0,0,.2,0,.3,0,0,0,.3,0,.5.1.1.3.6.5,1.5.2.9.4,1.9.5,2.9v.2c0,.2,0,.4,0,.6,0,.2,0,.4,0,.4l.2,5.3c0,0,0,.3,0,.8,0,.4,0,.7,0,.8v3c.1,0,.1.2.1.4,0,.2,0,.3.1.4l.2,5.8c0,0,0,.3-.1.7,0,.4,0,.6,0,.7,0,.3,0,.6,0,1,0,.4,0,.6.1.8,0,0,0,.3,0,.7,0,.4,0,.7-.1.9l-.4,3c0,.4,0,.8,0,1.3,0,.5,0,1.1-.2,1.7Z"/>
    <path class="st1" d="M117.1,74.5c-.3.1-.7.3-1.1.5-.4.2-.7.4-1,.7l-.7.7-.7.5h0c0,0-.2,0-.3.1-.1,0-.3.1-.3.2-.5.2-.9.4-1.4.5-.5.1-.9.2-1.3.2h-.7s-.8,0-.8,0c0,0-.1,0-.3,0-.1,0-.4,0-.8,0h-.9s-3.6-.4-3.6-.4c-.5,0-.9,0-1.2-.3s-.7-.4-1.1-.6c-.5,0-.9-.2-1.4-.5-.5-.3-.9-.7-1.3-1.2s-.8-1-1.2-1.6c-.4-.6-.7-1.1-.8-1.6-.2-.5-.5-.9-.8-1.4-.3-.4-.6-.9-.8-1.4v-.6c-.2-.5-.3-1-.5-1.7-.2-.6-.3-1.3-.4-2v-.8s0-.9,0-.9c.1-.4.2-.8.3-1.2,0-.4.2-.8.4-1.3.1-.2.2-.5.3-.7,0-.2.2-.4.2-.6,0-.2.2-.4.2-.5l.5-.7c.3-.4.6-.8,1-1.2.3-.4.7-.8,1.1-1.2l.5-.7c.6-.2,1-.5,1.4-.8.4-.3,1.1-.6,2-.7l.8-.4c0,0,.3-.1.5-.1.3,0,.5,0,.5,0h2.2s.2,0,.4,0c.2,0,.5,0,.7,0,.2,0,.5,0,.7,0,.2,0,.3,0,.4,0h1c.8,0,1.6.2,2.4.3.8.1,1.6.3,2.4.4l.8.3c.2,0,.5,0,.7.1.2.1.4.2.6.3v-.5c0,0,0-.2,0-.3s0-.3,0-.3v-.7s0-.1,0-.3c0-.2,0-.4-.1-.6,0-.2,0-.4-.1-.5,0-.2,0-.3,0-.4,0,0,0-.1,0-.3,0-.2,0-.3,0-.6,0-.2,0-.4,0-.6,0-.2,0-.3,0-.4,0-.5-.2-1-.5-1.4-.3-.5-.6-.9-1.1-1.3-.4-.4-.8-.7-1.3-.9-.4-.2-.8-.3-1.2-.3h-3.1c-.2,0-.5,0-.8.1s-.5.2-.7.4l-1.5.8c0,0-.2,0-.5.2-.3.1-.5.2-.8.2l-.7.5c0,0-.1.1-.2.2s0,.2-.2.2c0,0-.2.2-.3.3-.2.1-.4.2-.6.2l-.5-.5c-.1-.2-.2-.3-.2-.4,0,0,0-.1,0-.1v-1c0-.1,0-.3,0-.6,0-.3.2-.5.4-.8.2-.2.4-.5.6-.7.2-.2.5-.3.7-.3l1.6-1.2c.4-.2.8-.4,1.2-.5.3-.1.8-.3,1.2-.5h.1c.4-.1.8-.2,1.1-.3.3,0,.7-.2,1-.2.4,0,.7-.1,1-.1.3,0,.9,0,1.6.3.7.2,1.6.4,2.6.6.4,0,.8,0,1.3.3.4.2.8.4,1,.3h.3c.6.3,1.2.6,1.9.8.6.2,1.2.6,1.7,1.1l1.6,1.7c.3.3.6.6.8.8.2.2.4.4.5.6l.3.4c0,.2.2.3.3.4,0,.1.2.2.3.4.5.7.8,1.2,1,1.5.2.3.4.6.5.8l.2.3c.2.4.5.8.7,1.3.2.5.3.9.3,1.3h0c0,.4.2.7.4.9.2.3.3.5.3.8v.5c0,.5.2,1,.4,1.7.2.7.4,1.3.4,1.9v.4c0,.2,0,.5.2.9.1.4.2.6.3.7,0,.1,0,.4,0,.8,0,.4,0,.6,0,.7l.4,2.8c0,.4,0,.7-.2,1-.2.3-.4.6-.6,1,0,0-.2.3-.3.6,0,.3-.2.6-.2.7l-.9,1.4c-.2.2-.4.4-.5.6-.1.2-.2.4-.4.6l-.7,1.3-.7,1c0,0-.2.2-.3.4,0,.2-.1.3-.1.4l-1.3,1.4c0,0-.2.2-.4.4-.2.2-.4.3-.7.5-.2.2-.5.3-.6.5-.2.2-.3.3-.3.3l-.6,1.1c-.1.4-.4.7-.7,1-.4.3-.5.5-.6.5-.4,0-.7-.2-1-.5-.3-.4-.5-.8-.5-1.2,0,0,0-.1,0-.2,0,0,0,0,0-.1v-1.9c0-.3-.1-.7-.2-1.2-.1-.5-.2-.7-.3-.7ZM101.9,67.7c0,0,0,.2,0,.5,0,.2,0,.4,0,.5l.3.8c0,.3,0,.7.2,1.1.1.4.3.8.6,1.1l1.3,1c.2.1.5.3.9.4h.6c.3,0,.6,0,1,.3.4.2.9.3,1.6.3.2,0,.6,0,1-.1.4,0,.8-.1,1.1-.1h.5c.2,0,.5-.2,1-.5.5-.3,1-.5,1.3-.8l2.9-2.4v-.4s0-1,0-1c0-.3,0-.7,0-1.1,0-.5,0-1.2,0-2,0-.5,0-.8,0-.9,0-.1,0-.4,0-1v-1.2c0-.1,0-.3,0-.6,0-.3,0-.6,0-.9s0-.6,0-.9c0-.3,0-.5,0-.6-.1-.5-.2-.8-.3-1,0-.2,0-.4,0-.4s0,0,0,0c0,0,0,0,0,0l-1.7-.7c0,0-.2-.1-.3,0,0,0-.2,0-.3,0l-1.6-.3h-1c-.3,0-.5.1-.7.2-.2,0-.5.1-.8.1l-.8.8-1.5.6c-.3,0-.6,0-.9.2-.3.1-.5.3-.7.4-.2.2-.5.3-.7.5-.2.2-.5.3-.8.3l-.5.3c-.5.4-.9.9-1.1,1.4-.2.5-.4,1-.4,1.4,0,.2,0,.4,0,.6,0,.2,0,.4,0,.6l.2,1.7c-.1.2-.2.5-.3.9,0,.4-.1.7,0,1Z"/>
    <path class="st1" d="M138,64.8c0,0,0-.2,0-.3,0-.1,0-.2-.2-.3l-.2-1.3c0-.2,0-.4-.1-.7,0-.2,0-.5-.2-.7,0-.6-.1-1-.1-1.3,0-.3,0-.5,0-.7v-.4s-.5-3.7-.5-3.7v-1.1c0-.2,0-.3,0-.3,0,0,0,0,0-.3v-2.1c-.5,0-.8-.1-1.2-.1s-.8,0-1.2,0l-2.2.3c-.3,0-.7-.1-.9-.4s-.4-.5-.5-.9c0-.2,0-.5.2-.9.1-.4.4-.7.7-.9h.4c.2,0,.3,0,.4,0,0,0,.2,0,.3,0,.1,0,.3,0,.5-.1.2,0,.5,0,.8-.1l2.9-.2s0-.2.2-.5c0-.4.1-.8.2-1.2,0-.5,0-.9,0-1.4,0-.4,0-.8,0-1v-.4c0-.5.2-1,.4-1.6.2-.6.3-1,.4-1.1.2-.7.4-1.5.4-2.3,0-.8.3-1.4.7-1.9l.2-1.1v-.2s0-.2,0-.5c0-.3.1-.6.2-1,.1-.4.2-.7.4-.9.2-.3.4-.4.6-.4,0,0,0,0,.1,0,0,0,0,0,.1,0h.4c.2,0,.5,0,.8.2l1.9,1.6c0,.1.2.3.5.6.4.3.6.6.8.8.9,1,1.5,2,1.9,3.1.4,1,.8,2.1,1.2,3.3.2,0,.3,0,.3.2,0,.1,0,.3,0,.6s0,.6,0,1c0,.4.2.8.5,1.2l.3,1.8c.4,0,.8-.1,1.3-.2.4,0,.8-.1,1.1-.2s.7,0,1.1-.1c.1,0,.4,0,.9-.1.5,0,1.1,0,1.7,0,.6,0,1.2.2,1.7.5.5.3.9.7,1.1,1.3,0,0,0,0,0,0s0,.3-.1.5-.3.4-.5.5c-.3.2-.6.3-1.1.3,0,0-.3,0-.6,0-.3,0-.5,0-.7,0h-.9c-.6.3-1.2.5-2,.6-.7.1-1.4.2-2.1.2,0,0-.1,0-.2,0s0,0,0,0c-.1,0-.2.2-.3.4,0,.3-.1.6-.2.9,0,.3,0,.7,0,1,0,.3,0,.5,0,.6v.3s0,.9,0,.9v.2c0,.3-.1.6-.2,1,0,.3-.1.6-.2.9,0,.1,0,.3.1.6,0,0,0,.2-.2.5-.1.3-.1.6-.1.8l-.3.5-.3,1.4v.7c0,0,.1.2.2.4,0,.2,0,.4.1.6,0,.2,0,.4.1.5,0,.2,0,.3,0,.3l.3,5.5c.4.7.9,1.3,1.3,2,.5.7,1.2,1,2.2.9h.4c.6,0,1.3-.5,2.1-1.2.8-.8,1.2-1.8,1.4-3h0c0-.2,0-.4,0-.7,0-.1,0-.2.1-.3,0,0,0-.2-.1-.4,0-.2-.2-.3-.3-.4h-.2c-.3,0-.6,0-1,0-.3,0-.6-.3-.7-.8,0-.7.2-1.2.6-1.4.4-.2.9-.4,1.4-.5.3,0,.6,0,.8.3l1.1.5c.3.2.6.5.8.9.2.4.3.9.4,1.3,0,.3,0,.7,0,1,0,.4,0,.7,0,1.1v.6c0,.3-.1.6-.2,1,0,.4-.1.6-.3.9l-.7,1.1c0,.3-.2.7-.6,1.3-.4.6-.9,1-1.3,1.2-.2,0-.4.2-.7.4-.3.2-.6.3-1,.5-.3.2-.6.3-.9.5-.3.2-.4.3-.5.4-.6,0-1.1.1-1.4.2-.4,0-.7.1-1,.2-.3,0-.5.1-.5.2h-.5c-.6,0-1.2,0-1.8-.2-.6-.2-1.2-.2-1.7-.2l-1.7-1-1.3-.9c-.3-.1-.6-.3-.9-.5-.4-.3-.7-.6-1.1-.9-.4-.3-.7-.7-.9-1-.2-.3-.4-.5-.4-.7l-.9-1.5c0-.2-.1-.4-.2-.6,0-.3-.2-.7-.4-1.2-.2-.6-.4-1.3-.7-2.3Z"/>
    <path class="st1" d="M185.3,70.9c-.3.1-.7.3-1.1.5-.4.2-.7.4-1,.7l-.7.7-.7.5h0c0,0-.2,0-.3.1-.1,0-.3.1-.3.2-.5.2-.9.4-1.4.5-.5.1-.9.2-1.3.2h-.7s-.8,0-.8,0c0,0-.1,0-.3,0-.1,0-.4,0-.9,0h-.9s-3.6-.4-3.6-.4c-.5,0-.9,0-1.2-.3-.3-.2-.7-.4-1.1-.6-.5,0-.9-.2-1.4-.5-.5-.3-.9-.7-1.3-1.2s-.8-1-1.2-1.6c-.4-.6-.7-1.1-.8-1.6-.2-.5-.5-.9-.8-1.4-.3-.4-.5-.9-.8-1.4v-.6c-.2-.5-.3-1-.5-1.7-.2-.6-.3-1.3-.4-2v-.8s0-.9,0-.9c.1-.4.2-.8.3-1.2,0-.4.2-.8.4-1.3.1-.2.2-.5.3-.7,0-.2.2-.4.2-.6,0-.2.2-.4.2-.5l.5-.7c.3-.4.6-.8,1-1.2.3-.4.7-.8,1.1-1.2l.5-.7c.6-.2,1-.5,1.4-.8.4-.3,1.1-.6,2-.7l.8-.4c0,0,.3-.1.5-.1.3,0,.5,0,.5,0h2.2s.2,0,.4,0c.2,0,.5,0,.7,0,.2,0,.5,0,.7,0,.2,0,.3,0,.4,0h1c.8,0,1.6.2,2.4.3.8.1,1.6.3,2.4.4l.8.3c.2,0,.5,0,.7.1.2.1.4.2.6.3v-.5c0,0,0-.2,0-.3,0-.2,0-.3,0-.3v-.7s0-.1,0-.3c0-.2,0-.4-.1-.6,0-.2,0-.4-.1-.5,0-.2,0-.3,0-.4,0,0,0-.1,0-.3,0-.2,0-.3,0-.6,0-.2,0-.4,0-.6,0-.2,0-.3,0-.4,0-.5-.2-1-.5-1.4-.3-.5-.6-.9-1.1-1.3-.4-.4-.8-.7-1.3-.9-.4-.2-.8-.3-1.2-.3h-3.1c-.2,0-.5,0-.8.1s-.5.2-.7.4l-1.5.8c0,0-.2,0-.5.2-.3.1-.5.2-.8.2l-.7.5c0,0-.1.1-.2.2,0,0,0,.2-.2.2,0,0-.2.2-.3.3-.2.1-.4.2-.6.2l-.5-.5c-.1-.2-.2-.3-.2-.4,0,0,0-.1,0-.1v-1c0-.1,0-.3,0-.6,0-.3.2-.5.4-.8.2-.2.4-.5.6-.7.2-.2.5-.3.7-.3l1.6-1.2c.4-.2.8-.4,1.2-.5.3-.1.8-.3,1.2-.5h.1c.4-.1.8-.2,1.1-.3.3,0,.7-.2,1-.2.4,0,.7-.1,1-.1.3,0,.9,0,1.6.3.7.2,1.6.4,2.6.6.4,0,.8,0,1.3.3s.8.4,1,.3h.3c.6.3,1.2.6,1.9.8.6.2,1.2.6,1.7,1.1l1.6,1.7c.3.3.6.6.8.8.2.2.4.4.5.6l.3.4c0,.2.2.3.3.4,0,.1.2.2.3.4.5.7.8,1.2,1,1.5.2.3.4.6.5.8l.2.3c.2.4.5.8.7,1.3.2.5.3.9.3,1.3h0c0,.4.2.7.4.9.2.3.3.5.3.8v.5c0,.5.2,1,.4,1.7.2.7.4,1.3.4,1.9v.4c0,.2,0,.5.2.9.1.4.2.6.3.7,0,.1,0,.4,0,.8,0,.4,0,.6,0,.7l.4,2.8c0,.4,0,.7-.2,1-.2.3-.4.6-.6,1,0,0-.2.3-.3.6,0,.3-.2.6-.2.7l-.9,1.4c-.2.2-.4.4-.5.6-.1.2-.2.4-.4.6l-.7,1.3-.7,1c0,0-.2.2-.3.4-.1.2-.1.3-.1.4l-1.3,1.4c0,0-.2.2-.4.4-.2.2-.4.3-.7.5-.2.2-.5.3-.6.5-.2.2-.3.3-.3.3l-.6,1.1c-.1.4-.4.7-.7,1-.4.3-.5.5-.6.5-.4,0-.7-.2-1-.5-.3-.4-.5-.8-.5-1.2,0,0,0-.1,0-.2,0,0,0,0,0-.1v-1.9c0-.3-.1-.7-.2-1.2-.1-.5-.2-.7-.3-.7ZM170.1,64.1c0,0,0,.2,0,.5,0,.2,0,.4,0,.5l.3.8c0,.3,0,.7.2,1.1.1.4.3.8.6,1.1l1.3,1c.2.1.5.3.9.4h.6c.3,0,.6,0,1,.3.4.2.9.3,1.6.3.2,0,.6,0,1-.1s.8-.1,1.1-.1h.5c.2,0,.5-.2,1-.5.5-.3,1-.5,1.3-.8l2.9-2.4v-.4s0-1,0-1c0-.3,0-.7,0-1.1,0-.5,0-1.2,0-2,0-.5,0-.8,0-.9,0-.1,0-.4,0-1v-1.2c0-.1,0-.3,0-.6,0-.3,0-.6,0-.9,0-.3,0-.6,0-.9,0-.3,0-.5,0-.6-.1-.5-.2-.8-.3-1,0-.2,0-.4,0-.4s0,0,0,0c0,0,0,0,0,0l-1.7-.7c0,0-.2,0-.3,0,0,0-.2,0-.3,0l-1.6-.3h-1c-.3,0-.5.1-.7.2s-.5.1-.8.1l-.8.8-1.5.6c-.3,0-.6,0-.9.2-.3.1-.5.3-.7.4-.2.2-.5.3-.7.5-.2.2-.5.3-.8.3l-.5.3c-.5.4-.9.9-1.1,1.4-.2.5-.4,1-.4,1.4,0,.2,0,.4,0,.6s0,.4,0,.6l.2,1.7c-.1.2-.2.5-.3.9,0,.4-.1.7,0,1Z"/>
    <path class="st1" d="M236.8,68.2c-.3.1-.7.3-1.1.5s-.7.4-1,.7l-.7.7-.7.5h0c0,0-.2,0-.3.1s-.3.1-.3.2c-.5.2-.9.4-1.4.5-.5.1-.9.2-1.3.2h-.7s-.8,0-.8,0c0,0-.1,0-.3,0-.1,0-.4,0-.9,0h-.9s-3.6-.4-3.6-.4c-.5,0-.9,0-1.2-.3-.3-.2-.7-.4-1.1-.6-.5,0-.9-.2-1.4-.5-.5-.3-.9-.7-1.3-1.2-.4-.5-.8-1-1.2-1.6-.4-.6-.7-1.1-.8-1.6-.2-.5-.5-.9-.8-1.4-.3-.4-.6-.9-.8-1.4v-.6c-.2-.5-.3-1-.5-1.7-.2-.6-.3-1.3-.4-2v-.8s0-.9,0-.9c.1-.4.2-.8.3-1.2s.2-.8.4-1.3c.1-.2.2-.5.3-.7,0-.2.2-.4.2-.6,0-.2.2-.4.2-.5l.5-.7c.3-.4.6-.8,1-1.2.3-.4.7-.8,1.1-1.2l.5-.7c.6-.2,1-.5,1.4-.8.4-.3,1.1-.6,2-.7l.8-.4c0,0,.3-.1.5-.1.3,0,.5,0,.5,0h2.2s.2,0,.4,0c.2,0,.5,0,.7,0,.2,0,.5,0,.7,0,.2,0,.3,0,.4,0h1c.8,0,1.6.2,2.4.3.8.1,1.6.3,2.4.4l.8.3c.2,0,.5,0,.7.1.2.1.4.2.6.3v-.5c0,0,0-.2,0-.3s0-.3,0-.3v-.7s0-.1,0-.3c0-.2,0-.4-.1-.6,0-.2,0-.4-.1-.5,0-.2,0-.3,0-.4,0,0,0-.1,0-.3,0-.2,0-.3,0-.6,0-.2,0-.4,0-.6s0-.3,0-.4c0-.5-.2-1-.5-1.4-.3-.5-.6-.9-1.1-1.3-.4-.4-.8-.7-1.3-.9-.4-.2-.8-.3-1.2-.3h-3.1c-.2,0-.5,0-.8.1-.3,0-.5.2-.7.4l-1.5.8c0,0-.2,0-.5.2-.3.1-.5.2-.8.2l-.7.5c0,0-.1.1-.2.2,0,0,0,.2-.2.2,0,0-.2.2-.3.3s-.4.2-.6.2l-.5-.5c-.1-.2-.2-.3-.2-.4,0,0,0-.1,0-.1v-1c0-.1,0-.3,0-.6,0-.3.2-.5.4-.8.2-.2.4-.5.6-.7.2-.2.5-.3.7-.3l1.6-1.2c.4-.2.8-.4,1.2-.5.3-.1.8-.3,1.2-.5h.1c.4-.1.8-.2,1.1-.3.3,0,.7-.2,1-.2.4,0,.7-.1,1-.1.3,0,.9,0,1.6.3.7.2,1.6.4,2.6.6.4,0,.8,0,1.3.3.4.2.8.4,1,.3h.3c.6.4,1.2.6,1.9.8.6.2,1.2.6,1.7,1.1l1.6,1.7c.3.3.6.6.8.8.2.2.4.4.5.6l.3.4c0,.2.2.3.3.4s.2.2.3.4c.5.7.8,1.2,1,1.5.2.3.4.6.5.8l.2.3c.2.4.5.8.7,1.3.2.5.3.9.3,1.3h0c0,.4.2.7.4.9.2.3.3.5.3.8v.5c0,.5.2,1,.4,1.7.2.7.4,1.3.4,1.9v.4c0,.2,0,.5.2.9.1.4.2.6.3.7,0,.1,0,.4,0,.8,0,.4,0,.6,0,.7l.4,2.8c0,.4,0,.7-.2,1-.2.3-.4.6-.6,1,0,0-.2.3-.3.6,0,.3-.2.6-.2.7l-.9,1.4c-.2.2-.4.4-.5.6-.1.2-.2.4-.4.6l-.7,1.3-.7,1c0,0-.2.2-.3.4,0,.2-.1.3-.1.4l-1.3,1.4c0,0-.2.2-.4.4l-.7.5c-.2.2-.5.3-.6.5-.2.2-.3.3-.3.3l-.6,1.1c-.1.4-.4.7-.7,1-.4.3-.5.5-.6.5-.4,0-.7-.2-1-.5-.3-.4-.5-.8-.5-1.2,0,0,0-.1,0-.2,0,0,0,0,0-.1v-1.9c0-.3-.1-.7-.2-1.2-.1-.5-.2-.7-.3-.7ZM221.6,61.4c0,0,0,.2,0,.5,0,.2,0,.4,0,.5l.3.8c0,.3,0,.7.2,1.1.1.4.3.8.6,1.1l1.3,1c.2.1.5.3.9.4h.6c.3,0,.6,0,1,.3.4.2.9.3,1.6.3.2,0,.6,0,1-.1s.8-.1,1.1-.1h.5c.2,0,.5-.2,1-.5.5-.3,1-.5,1.3-.8l2.9-2.4v-.4s0-1,0-1c0-.3,0-.7,0-1.1,0-.5,0-1.2,0-2,0-.5,0-.8,0-.9,0-.1,0-.4,0-1v-1.2c0-.1,0-.3,0-.6,0-.3,0-.6,0-.9,0-.3,0-.6,0-.9,0-.3,0-.5,0-.6-.1-.5-.2-.8-.3-1,0-.2,0-.4,0-.4,0,0,0,0,0,0,0,0,0,0,0,0l-1.7-.7c0,0-.2,0-.3,0s-.2,0-.3,0l-1.6-.3h-1c-.3,0-.5.1-.7.2s-.5.1-.8.1l-.8.8-1.5.6c-.3,0-.6,0-.9.2-.3.1-.5.3-.7.4s-.5.3-.7.5c-.2.2-.5.3-.8.3l-.5.3c-.5.4-.9.9-1.1,1.4-.2.5-.4,1-.4,1.4,0,.2,0,.4,0,.6,0,.2,0,.4,0,.6l.2,1.7c-.1.2-.2.5-.3.9,0,.4-.1.7,0,1Z"/>
    <path class="st1" d="M272.5,69.4c0-.5-.1-1-.2-1.3-.1-.4-.2-.8-.2-1.2,0,0,0-.2-.2-.8-.2-.6-.3-1.4-.3-2.3v-1.5c-.1-.7-.1-1.4,0-2.1s0-1.4,0-2.1c0,.2,0,0,0-.7,0-.6,0-1.3,0-2.1v-2c-.1-.5-.2-.9-.3-1.1,0-.2-.2-.5-.2-.8,0-.3-.2-.7-.2-1.3,0-.5-.2-1.3-.2-2.5,0-.2,0-.8-.1-1.8s-.4-2.2-1-3.7c-.3-.7-.6-1.3-.8-1.6-.3-.4-.5-.6-.8-.8-.2-.2-.4-.3-.6-.3-.2,0-.3,0-.5,0-.2,0-.4,0-.6,0-.2,0-.4.1-.6.3l-1.2,1.2c0,0-.2.2-.4.3-.2,0-.4.3-.5.8l-1.3,1.6c0,.1,0,.3-.2.5-.1.2-.3.4-.4.7-.1.2-.3.4-.4.6-.1.2-.2.3-.2.3l-.7,1.9c-.1.3-.2.6-.2.9,0,.2,0,.5-.1.7,0,.2,0,.3,0,.5,0,.2,0,.3,0,.5v.9c0,0,0,.2.1.5s0,.5.1.8c0,.3,0,.6.1.9,0,.3,0,.4,0,.5,0,1.3.1,2.4.1,3.2,0,.8,0,1.5,0,2.1s0,1.1-.1,1.4c0,.4-.1.7-.2,1-.2.8-.5,1.6-.8,2.3-.3.7-.6,1.4-.9,2.1l-.2.5c0,0-.1.3-.2.7,0,.4-.1.8-.2,1.2,0,.4-.2.8-.4,1.1-.2.3-.4.5-.8.5-.2,0-.3,0-.3,0s-.1,0-.3,0l-1-1.8c0-.1,0-.3-.1-.4,0-.2-.1-.3-.1-.5l-.5-3.5s0-.1,0-.3c0-.1-.1-.3-.2-.5,0-.2-.1-.3-.1-.5,0-.2,0-.3,0-.3,0,0,0-.5-.2-1.2s-.5-1.6-.9-2.5c0,0,0-.3,0-.7s0-.8-.1-1.2c0-.4-.1-.8-.2-1.2,0-.3-.1-.6-.2-.6v-1c-.3-.8-.4-1.7-.5-2.6s0-1.8-.1-2.5c0-.9,0-1.9-.1-2.8,0-.9,0-1.8.2-2.8l.4-3.1c0-.2.1-.5.1-.8,0-.4,0-.7,0-1.1,0-.4.2-.7.4-1,.2-.3.5-.5.9-.5.3,0,.7,0,1.2.3.4.2.7.5.7.9l.9,1.1c.1.1.3.3.6.7.3.3.4.6.5.9l1,1.7c0,.2,0,.3.1.4,0,.1.2.3.2.5.2-.5.5-1,.9-1.4.4-.4.6-.8.7-1,.1-.2.3-.5.6-.9.3-.4.6-.8,1-1.2.3-.4.7-.8,1.1-1.1.4-.4.8-.6,1.2-.8l1.2-.9c.2,0,.4-.1.8-.2.2,0,.5,0,.9,0,.4,0,.7,0,1.1.2.4,0,.8.2,1.3.2l3.3,1.3c.2,0,.4,0,.5.2.1,0,.3.2.4.3.2.1.4.2.6.4.3.2.6.4,1.1.6.1.1.3.3.6.6.2.3.5.5.8.8s.5.5.8.6c.2.2.4.3.5.3,0,0,.2,0,.4.2s.3.4.5.6c.1.2.3.4.4.6s.2.3.3.3l.9,1c.1.2.4.3.7.6s.5.4.5.6c0,.5,0,1,.3,1.4.3.5.4,1,.4,1.6v.9c.2.3.3.6.4.9.1.3.2.6.4.9v.6c0,.2.1.4.2.8,0,.4,0,.6,0,.7,0,.3,0,.7-.2,1.2-.1.5-.3.8-.5,1l-.5,1.7c0,.2,0,.4-.2.7s-.3.5-.6.8c-.2.3-.5.5-.7.8-.2.3-.4.5-.6.7,0,0-.1.3-.3.7-.2.4-.3.6-.4.7,0,0,0,.2-.1.2l-1.6,3.2c-.1.3-.3.6-.6.9l-.4.4-.6,1.4-.6,1c0,.4-.1.9-.5,1.5s-.8,1-1.2,1.1c-.4,0-.7-.1-.8-.4-.2-.3-.4-.6-.5-1Z"/>
    <path class="st1" d="M307,68.5c0-.1,0-.3,0-.5,0-.2,0-.5,0-.7,0-.2,0-.5-.2-.8,0-.3-.2-.7-.2-1.1l-.7.3c-.8.5-1.5.9-2,1.1-.5.2-1,.3-1.6.5-.4.1-.8.2-1.3.3-.4,0-.8.2-1.3.2-.5,0-.9.1-1.4.1-.7,0-1.6,0-2.6-.2-1-.1-2.1-.5-3.2-1-1.1-.5-2.1-1.3-3.1-2.3-1-1-1.8-2.4-2.4-4.1,0-.5,0-.9-.2-1.1,0-.2-.2-.5-.3-.7-.1-.2-.3-.5-.4-.8-.1-.3-.3-.7-.4-1.3,0-.4,0-1,0-1.8,0-.9.3-2,.8-3.4,0-.1.2-.4.3-.7.1-.3.3-.7.5-1.1.2-.4.5-.8.8-1.3.3-.4.7-.9,1.2-1.3l.6-.5,1.7-1c0,0,.3-.2.7-.4.4-.2.8-.3,1.3-.5.5-.2,1-.3,1.5-.5.5-.1,1-.2,1.3-.2.5,0,.9,0,1,0,.2,0,.3,0,.5,0h1c.6,0,1.1,0,1.4,0s.7,0,.9.1c.3,0,.5,0,.7.1.2,0,.5,0,.9,0v-2.7c0-.8,0-1.4,0-1.9s0-1,.1-1.6c0-.5,0-1,.1-1.3,0-.4,0-1,.1-2,.1-1,.3-1.9.5-2.9l-.2-3.5c0,0,0-.2.1-.5,0-.2,0-.4,0-.5v-1.4c0-.3,0-.6,0-.9.1-.3.3-.5.4-.8.2-.2.3-.5.4-.8.1-.3.2-.6.2-.9l.3-.6c0-.1.1-.3.4-.4.3-.2.5-.3.8-.3.3,0,.5,0,.8.3.3.2.5.5.6.8.2.3.3.5.4.7.1.2.2.4.3.5.1.2.2.2.3.3.2.3.4.6.6.9.2.2.3.4.4.4v.2c.3.1.5.5.7,1,.3.6.5,1.2.8,1.9.3.7.5,1.5.7,2.2.2.8.3,1.5.3,2,0,0,0,.2,0,.3,0,.1,0,.2,0,.3,0,.2,0,.5.2.8.1.3.2.6.3.8,0,.4,0,.9.2,1.3.1.4.2.9.4,1.3.1.4.2.9.4,1.4.1.5.2,1,.2,1.6,0,.6,0,1.2,0,1.9,0,.6,0,1.2,0,1.9,0,0,0,.1,0,.3s0,.4,0,.6c0,.2,0,.4,0,.6,0,.2,0,.3,0,.4l.2,3c0,.6,0,1.2,0,1.8,0,.6-.2,1.2-.3,1.8l-.3,1.2c0,.4,0,1-.1,1.8-.1.8-.4,1.6-.7,2.5l-.4.6c0,.3-.3.8-.6,1.4-.3.6-.4,1-.4,1.4,0,.2,0,.5,0,.8,0,.3-.2.7-.3,1,0,.4-.2.7-.3,1.1-.1.4-.2.7-.3.9l-.6,1c0,.3-.2.6-.5,1.1-.3.4-.6.8-.8,1.2l-.4.8c0,.1-.2.2-.4.2h-.5c-.2-.2-.4-.4-.5-.6ZM293.2,57.6c0,.6.1,1.1.3,1.7.2.5.3,1.2.3,2l.5.8c0,.4.2.7.5,1,.3.3.8.6,1.3.9.5.3,1.1.5,1.7.6s1.3.2,2,.2c.5,0,.9,0,1.3-.2s.9-.2,1.4-.5c.5-.2,1-.6,1.6-1,.6-.4,1.3-1,2.1-1.7v-.3c0-1.3-.2-2.5-.5-3.7-.3-1.2-.5-2.4-.7-3.7,0-.3-.1-.6-.2-.9-.1-.5-.2-.9-.4-1.1,0-.7-.2-1.3-.4-1.8-.2-.5-.4-1.2-.4-2.1,0-.2,0-.4,0-.7,0-.2,0-.4,0-.6,0,0-.1,0-.2,0-.1,0-.2,0-.3,0,0,0-.2,0-.5,0-.3,0-.5,0-.5,0-.3,0-.7.2-1.2.4-.5.3-1,.5-1.5.6l-.6.5c-.5.3-.9.6-1.3.8-.3.2-.7.5-1,.7-.3.3-.5.5-.7.7l-1.3,2.1-1.2,1.5c0,.5,0,.9-.2,1.2-.2.4-.3.8-.2,1.3,0,.2,0,.4,0,.5,0,.2,0,.3.2.5Z"/>
  </g>
  <path class="st0" d="M65.8,108h0c-4.3-1.6-5.8-5.7-6.4-7.4s0-.2.2-.1c.6.5,2,1.5,3.9,1.9,6.6,1.5,7,8.1,7,10s0,.3-.2,0c-.9-2.2-2.9-3.6-4.5-4.4ZM95.1,157.5c.3,0,.2.5,0,.5-19.5,4.6-33.7-9.2-27.3-29.3,1.2-3.9,3.2-7.6,5.2-12.5,1.1-2.8,2.1-10.8-3.1-14-.1,0,0-.2,0-.2,13.1-.1,19.9,8.8,21.6,17.1s.8,8.5.1,10.8,0,.2.2.1c3-1.9,4.3-5.9,4.6-7s.2-.2.3,0c.6.8,2.6,3.7,3.3,8.9,1.1,9.3-3,12.5-6.9,18-3.5,4.8,0,6.9,2.1,7.6Z"/>
</svg>