<svg width="226" height="226" viewBox="0 0 226 226" fill="none" xmlns="http://www.w3.org/2000/svg"><path fill-rule="evenodd" clip-rule="evenodd" d="M147.315 22.7969C141.198 22.9449 134.369 24.3361 128.578 28.0684C123.577 31.2919 117.965 35.7416 113.016 40.9045C110.929 43.0811 108.863 45.486 106.982 48.0773C103.313 45.7003 99.6304 43.5319 96.1782 41.499C94.9458 40.7734 93.7428 40.065 92.5802 39.3705C80.6356 32.2359 65.0383 28.1603 50.3115 30.389C44.9291 31.2036 38.3407 32.8799 32.5887 36.8377C24.5787 42.3492 22.2709 49.736 20.611 55.0489C20.5524 55.2365 20.4945 55.4217 20.4373 55.604L20.3944 55.7406C18.2467 62.5807 16.6212 70.9834 16.6212 78.6724C16.6212 81.8265 17.028 84.8869 17.3406 87.2386L17.371 87.4671C17.7181 90.0824 17.9468 91.9178 17.9468 93.6247C17.9468 101.919 21.1265 109.112 24.4189 114.822C26.0869 117.714 27.9157 120.444 29.5844 122.881C29.9921 123.476 30.3853 124.047 30.7655 124.599C32.0094 126.406 33.1145 128.011 34.1363 129.611C39.9734 138.756 47.224 147.487 53.8468 155.463C55.4945 157.447 57.1034 159.384 58.642 161.27C64.138 168.005 70.6027 173.536 76.6054 178.436C77.8288 179.435 79.0252 180.402 80.1956 181.348L80.1991 181.351C84.9903 185.222 89.3455 188.742 93.3396 192.657C97.4321 196.67 104.038 200.855 109.452 202.866C109.754 202.978 109.962 203.075 110.326 203.251L110.356 203.267C110.58 203.38 111.88 204.04 113.31 204.408C115.467 204.963 117.587 204.878 119.577 204.314C121.149 203.867 122.477 203.158 123.286 202.707C139.589 193.626 154.504 180.556 166.624 167.055C167.966 165.56 169.463 163.954 171.032 162.27C174.485 158.566 178.285 154.488 181.544 150.404C183.821 147.551 185.922 144.605 187.843 141.911L188.165 141.46C190.231 138.564 192.111 135.951 194.105 133.507C198.92 127.606 202.199 119.326 204.408 113.746C204.703 113.001 204.979 112.304 205.237 111.668C208.051 104.722 209.76 98.0886 209.612 89.7916C209.11 61.605 191.435 36.146 165.155 25.8355C159.81 23.7384 153.492 22.6474 147.315 22.7969Z" fill="white"></path><path d="M161.293 34.377C153.219 31.2093 141.347 30.833 133.786 35.7061C124.984 41.3797 113.803 51.5516 110.053 61.9555C103.013 56.24 94.9868 51.8136 87.2426 47.1879C76.9395 41.0339 63.6608 37.6832 51.5983 39.5087C46.8972 40.2202 42.0145 41.5787 38.0476 44.3082C32.9028 47.8482 31.501 52.3133 29.7686 57.8316L29.7257 57.9683C27.8031 64.0915 26.4116 71.4662 26.4116 77.9047C26.4116 82.8733 27.7372 87.8961 27.7372 92.857C27.7372 104.337 36.5579 114.38 42.3558 123.463C49.2318 134.235 58.1038 144.283 66.1801 154.18C75.8092 165.98 89.3393 174.17 100.131 184.749C103.212 187.77 108.616 191.198 112.724 192.723C115.776 193.857 115.494 194.716 118.21 193.203C133.296 184.8 147.372 172.53 158.973 159.607C163.811 154.217 168.99 149.074 173.518 143.399C177.925 137.876 181.693 131.876 186.148 126.417C190.393 121.214 193.236 113.371 195.759 107.145C198.212 101.089 199.522 95.8129 199.404 89.202C198.974 65.0618 183.803 43.2085 161.293 34.377Z" fill="#FF6575"></path><path fill-rule="evenodd" clip-rule="evenodd" d="M99.0385 100.106C100.651 101.036 101.442 103 100.831 104.835C100.132 106.93 97.8671 108.063 95.7713 107.365C94.1023 106.808 93.0899 105.516 92.6491 104.921C92.1817 104.291 91.7376 103.545 91.4107 102.996C91.3696 102.927 91.3304 102.861 91.2932 102.799C90.8958 102.135 90.6212 101.702 90.3761 101.396C90.3479 101.361 90.3232 101.332 90.3021 101.307C89.1816 100.858 88.1962 100.429 87.2725 100.028C85.4572 99.2382 83.8802 98.5525 81.9845 98.0149C81.6182 97.9111 80.5906 97.909 78.926 98.4297C77.3954 98.9085 75.9019 99.6481 74.9513 100.255C71.3405 102.563 68.3402 105.62 65.6004 109.273C64.2749 111.04 61.7677 111.399 60.0004 110.073C58.233 108.748 57.8748 106.241 59.2002 104.473C62.3333 100.295 66.0032 96.4791 70.6439 93.514C72.1663 92.5413 74.3023 91.4938 76.5377 90.7946C78.6392 90.1372 81.5141 89.5662 84.1668 90.3184C86.5646 90.9982 88.9917 92.0472 91.0864 92.9525C91.9673 93.3332 92.7895 93.6885 93.526 93.9803C95.0109 94.5687 96.0147 95.6398 96.6187 96.3933C97.2505 97.1816 97.7805 98.0607 98.1575 98.6906C98.1897 98.7444 98.2209 98.7965 98.2511 98.847C98.6122 99.4506 98.8357 99.8243 99.0385 100.106ZM90.2083 101.209C90.2083 101.209 90.2115 101.212 90.218 101.217C90.2116 101.211 90.2083 101.209 90.2083 101.209ZM99.1578 100.263C99.1917 100.304 99.2088 100.32 99.2089 100.318C99.209 100.316 99.192 100.295 99.1578 100.263Z" fill="#050038"></path><path fill-rule="evenodd" clip-rule="evenodd" d="M169.894 95.2462C171.73 96.0845 172.675 98.1901 172.023 100.148C171.324 102.244 169.059 103.376 166.963 102.678C165.655 102.242 164.675 101.338 164.161 100.833C163.548 100.232 162.957 99.5334 162.471 98.9478C162.312 98.7552 162.164 98.5748 162.023 98.4036C161.691 97.9992 161.401 97.6461 161.103 97.3058C160.904 97.0778 160.738 96.8984 160.599 96.7603C160.531 96.6927 160.477 96.6421 160.436 96.6057C160.395 96.5687 160.375 96.5535 160.375 96.5537C158.451 95.1107 156.38 94.3255 153.881 93.9578C151.317 93.5803 148.645 94.4087 145.663 96.2182C143.182 97.7236 140.885 99.6451 138.522 101.622C137.987 102.07 137.449 102.52 136.904 102.969C135.2 104.374 132.679 104.131 131.274 102.427C129.868 100.722 130.111 98.2014 131.815 96.7961C132.26 96.4294 132.729 96.0365 133.218 95.6258C135.59 93.6372 138.458 91.232 141.513 89.3786C145.259 87.1058 149.866 85.2806 155.046 86.043C158.65 86.5734 162.024 87.7904 165.175 90.1536C165.944 90.7303 166.624 91.4663 167.126 92.0402C167.51 92.4794 167.92 92.9786 168.281 93.4176C168.404 93.568 168.522 93.7114 168.631 93.8429C169.109 94.4195 169.473 94.8373 169.766 95.125C169.817 95.1758 169.86 95.2156 169.894 95.2462ZM169.977 95.3171C169.989 95.3265 169.995 95.3306 169.995 95.3303C169.995 95.3299 169.989 95.3252 169.977 95.3171Z" fill="#050038"></path><path fill-rule="evenodd" clip-rule="evenodd" d="M139.365 136.801C141.293 137.88 141.981 140.317 140.902 142.245C139.061 145.535 136.013 147.741 133.236 149.338C131.386 150.401 129.249 151.401 127.422 152.257C126.596 152.643 125.834 153 125.19 153.32C122.547 154.632 119.562 154.341 117.592 154.02C116.514 153.844 115.465 153.606 114.594 153.405C114.555 153.396 114.516 153.388 114.478 153.379C113.606 153.178 112.973 153.032 112.453 152.948C109.575 152.48 107.011 151.218 104.879 149.942C103.528 149.133 102.087 148.144 100.85 147.295C100.245 146.88 99.6884 146.498 99.2154 146.188C97.369 144.975 96.8556 142.495 98.0685 140.648C99.2815 138.802 101.762 138.288 103.608 139.501C104.373 140.004 105.062 140.479 105.725 140.935C106.804 141.679 107.817 142.377 108.988 143.078C110.759 144.138 112.31 144.82 113.736 145.051C114.527 145.18 115.409 145.383 116.181 145.561C116.251 145.578 116.32 145.594 116.388 145.609C117.269 145.812 118.087 145.995 118.879 146.124C120.649 146.413 121.415 146.262 121.633 146.154C122.623 145.663 123.566 145.223 124.482 144.796C126.122 144.031 127.675 143.307 129.249 142.402C131.608 141.045 133.143 139.729 133.921 138.338C135 136.411 137.437 135.722 139.365 136.801Z" fill="#050038"></path><path fill-rule="evenodd" clip-rule="evenodd" d="M135.176 53.5473C134.37 54.2672 133.534 55.0135 132.585 55.8004C130.884 57.2106 128.362 56.9753 126.952 55.2748C125.542 53.5743 125.777 51.0526 127.478 49.6424C127.997 49.2123 128.639 48.6429 129.357 48.0067C130.861 46.6744 132.696 45.0493 134.413 43.798C137.115 41.8286 140.639 39.865 144.792 39.865C147.001 39.865 148.792 41.6559 148.792 43.865C148.792 46.0741 147.001 47.865 144.792 47.865C143.171 47.865 141.343 48.6463 139.124 50.2635C137.661 51.3295 136.456 52.4051 135.176 53.5473Z" fill="white"></path><path fill-rule="evenodd" clip-rule="evenodd" d="M59.3583 44.7625C60.1931 44.738 61.7748 44.7116 62.7962 44.8687C63.9362 45.0441 65.0849 45.1991 66.2784 45.3601C66.3666 45.372 66.455 45.3839 66.5437 45.3959C67.8181 45.568 69.1407 45.7484 70.4686 45.9608C72.65 46.3099 74.1354 48.3612 73.7864 50.5426C73.4374 52.724 71.3861 54.2094 69.2047 53.8604C67.9851 53.6652 66.752 53.4966 65.4733 53.324C65.3805 53.3114 65.2875 53.2989 65.1942 53.2863C64.016 53.1274 62.7965 52.9629 61.5797 52.7757C61.5852 52.7765 61.588 52.7769 61.588 52.777C61.588 52.7772 61.5344 52.7706 61.4105 52.7635C61.2723 52.7556 61.0966 52.7497 60.8896 52.7466C60.4748 52.7405 60.0075 52.7469 59.5934 52.7591C59.4888 52.7621 59.3923 52.7654 59.3049 52.7688C59.0651 52.8136 58.8177 52.8371 58.5649 52.8371C58.4714 52.8371 58.36 52.8363 58.2505 52.8324C58.2 52.8306 58.106 52.8267 57.9947 52.8168C57.9405 52.812 57.8413 52.8023 57.7195 52.7834C57.7178 52.7832 57.716 52.7829 57.714 52.7826C57.6401 52.7712 57.3228 52.7222 56.9451 52.5834C56.7922 52.5272 56.2578 52.3282 55.713 51.8592C55.1134 51.3429 53.9395 49.9249 54.4356 47.8827C54.8072 46.3526 55.9093 45.6264 56.1197 45.4877L56.1222 45.4861C56.4831 45.2482 56.8007 45.1244 56.9282 45.0769C57.2104 44.9716 57.4425 44.9226 57.5095 44.9085C57.6106 44.8871 57.6938 44.8736 57.743 44.8661C57.9114 44.8403 58.0645 44.8275 58.1229 44.8226C58.4202 44.798 58.8833 44.7765 59.3583 44.7625ZM58.7843 52.7953C58.7856 52.7951 58.7869 52.795 58.7884 52.7949C58.7735 52.7963 58.7709 52.7964 58.7843 52.7953Z" fill="white"></path><path fill-rule="evenodd" clip-rule="evenodd" d="M45.7875 53.4555C43.897 49.9304 43.895 49.9315 43.893 49.9326L43.889 49.9347L43.8809 49.9391L43.8643 49.9482L43.8297 49.9674C43.806 49.9806 43.7811 49.9948 43.7551 50.0101C43.703 50.0405 43.6462 50.075 43.5854 50.1138C43.4636 50.1915 43.3253 50.2864 43.1744 50.401C42.8722 50.6305 42.5218 50.9372 42.1559 51.338C41.4152 52.1491 40.6548 53.2975 40.0909 54.8712C39.3456 56.9509 40.4274 59.2409 42.507 59.9862C44.5867 60.7314 46.8767 59.6497 47.6219 57.57C47.794 57.0899 47.9674 56.8485 48.0366 56.7637C49.7112 55.6281 50.2898 53.3872 49.3126 51.565C48.2685 49.6181 45.8438 48.8863 43.897 49.9304L45.7875 53.4555ZM47.682 56.9784C47.682 56.9784 47.682 56.9784 47.682 56.9784L47.6821 56.9783C47.6821 56.9784 47.682 56.9784 47.682 56.9784Z" fill="white"></path><path fill-rule="evenodd" clip-rule="evenodd" d="M122.63 78.7269C124.684 77.9147 127.008 78.9217 127.82 80.9761C131.019 89.0671 133 96.8021 134.704 105.13C135.547 109.252 136.39 113.121 137.831 116.545C138.607 118.388 138.966 120.758 137.657 122.944C136.443 124.969 134.392 125.797 132.891 126.159C132.236 126.317 131.578 126.477 130.918 126.637C125.401 127.975 119.689 129.36 113.935 130.319C111.756 130.683 109.695 129.21 109.332 127.031C108.969 124.852 110.441 122.791 112.62 122.428C118.067 121.52 123.486 120.207 129.041 118.86C129.374 118.779 129.708 118.699 130.042 118.618C128.511 114.656 127.627 110.453 126.866 106.733C125.214 98.654 123.344 91.4141 120.381 83.9174C119.568 81.863 120.575 79.5391 122.63 78.7269Z" fill="#050038"></path></svg>