<?xml version="1.0" encoding="utf-8"?>
<!-- Generator: Adobe Illustrator 25.4.0, SVG Export Plug-In . SVG Version: 6.00 Build 0)  -->
<svg version="1.1" id="Clearspace_Guides" xmlns="http://www.w3.org/2000/svg" xmlns:xlink="http://www.w3.org/1999/xlink" x="0px"
	 y="0px" viewBox="0 0 641.8 207" style="enable-background:new 0 0 641.8 207;" xml:space="preserve">
<style type="text/css">
	.st0{fill:#CE0A24;}
	.st1{fill:#FFFFFF;}
</style>
<g>
	<g>
		<path id="Nando_x27_s_1_" class="st0" d="M324.1,167.4c-0.4-0.1-0.8-0.2-1.1-0.2c-1.2,0-2.2,0.6-3,1.1c-0.7,0.5-1.4,0.9-2.2,0.9
			l-0.1,0c-0.2,0-0.3-0.1-0.4-0.2c-1-1.2-0.3-5.6,0-7.3l0.1-0.5c0.7-4.3,1.4-9.4,2-13.7l0,0l0.3-2.4c0.4-2.6,1-7.3,1-8.5
			c0.1-3.7-0.8-4.5-1.8-5.5l-0.3-0.3c-1.6-1.5-3.7-3.4-7.5-5.7c-1-0.6-2.5-1.4-3.7-1.2c-1,0.1-2.1,1.2-2.7,2.2
			c-0.2,0.4-0.5,1.2-0.9,2.1l-0.1,0.2c-0.1,0.1-0.2,0.2-0.3,0.2c-0.2,0.2-0.8-0.1-1.3-0.4c-0.2-0.1-0.5-0.2-0.7-0.3
			c-5.2-2.3-12.1-2.8-12.4-2.8c0,0-1-0.1-2.6-0.1c-1.3,0-2.6,0.1-4,0.2c-6.7,0.4-11.3,2-12.5,2.5c-1.4,0.5-3.2,1.2-4.6,1.9
			c-7.7,3.7-13.3,9.5-16.7,17.2c-0.7,1.9-6.5,18.5,6.5,29.1c0.2,0.2,0.5,0.4,0.7,0.6l0.3,0.2c0.4,0.3,0.8,0.6,1.2,0.8l0.4,0.3
			c0.2,0.1,0.3,0.2,0.5,0.3c1.6,1,3.2,1.8,4.9,2.5l1,0.4l0-0.1c2.2,0.8,3.9,1.2,4.8,1.4l0.3,0.1c1.8,0.5,5.6,0.7,6.8,0.7
			c0.1,0,0.2,0,0.3,0c8.5-0.3,13.9-2.3,17.2-4.2l0,0l0.9-0.5c2-1.2,3.2-2.5,4-3.3l0.1,0.2l0-0.1c0.1,0.3,0.2,0.5,0.3,0.6l0,0
			c1.1,2,5.1,5.8,11.9,5.8h0c0.8,0,1.7-0.1,2.5-0.2c3.8-0.5,10.4-2.3,12.5-9.1c0.3-0.9,0.6-2.6-0.1-3.8
			C325.4,168,324.9,167.6,324.1,167.4z M300.9,139.8c0,1.1-1.2,11.7-2,16.2c-0.4,2.3-1.7,7.9-4.6,10.8c-3.7,3.8-6.4,5.2-11.1,5.8
			c-0.5,0.1-1.1,0.1-1.8,0.1c-2.3,0-4.5-0.8-6.7-2.6c-2.8-2.2-5.7-7.2-5.3-14.5c0.1-1.5,0.3-2.9,0.6-4.2l0-0.2
			c0.5-1.6,1.1-3.2,2.1-4.7c6.1-10.5,17.8-11.2,18-11.2c1-0.1,2-0.2,2.8-0.2C300.7,135.4,300.9,139.6,300.9,139.8z M411.4,151.2
			c0,0.2,0,0.3,0,0.4c0,1.7-0.6,9.4-4.8,15.4c-4.7,6.9-10.8,11-15.2,13.3c-0.4,0.2-0.9,0.5-1.3,0.7c-2.7,1.5-5.5,3-8.9,3.6
			c-0.2,0-0.4,0-0.6,0c-0.2,0-0.8,0-1.3-0.2l-0.1,0c-0.7-0.3-1.5-0.6-1.6-2c0-0.3,0.1-0.8,0.9-2c2-2.7,8.7-12.5,10.4-26.8
			c1-7.9,0.1-13.4-2.6-16.3c-1.7-1.9-4.2-2.8-7.7-2.8c-0.5,0-0.9,0-1.4,0c-9.1,0.6-13.4,9.2-14.4,13.7c-0.9,5.2-2.2,12.7-3.1,18.1
			c-0.2,1.7-0.3,5.9,2.7,7c2.8,1,4.2,2.8,3.8,4.9c-0.3,1.6-1.5,2.6-3.1,2.6c-2.3,0.1-4.6,0-6.8-0.2c-1.3-0.1-2.6-0.1-3.8-0.2
			c-2.3,0-4.7-0.1-7.1-0.1c-1.1,0-2.2,0-3.1,0c-0.3,0-0.7,0-1,0c-0.6,0-1,0-1.4,0c-0.4,0-0.9,0-1.4,0c-0.3,0-0.6,0-1.1,0
			c-1.1,0-2.5,0.1-3.9,0c-1.6,0-2.3-0.2-2.8-0.7c-0.8-0.6-0.9-1.8-0.9-2.2c0-1.2,0.4-2.2,1.2-3c0.8-0.9,1.8-1.1,2.8-1.4
			c1.8-0.5,3.6-1,4.8-5.6c0.7-4.2,1.6-10.1,2.5-15.8c0.9-5.5,1.7-10.6,2.2-13.5c0-0.1,0-0.3,0-0.4c0-0.2,0.1-0.5,0-0.6
			c-0.1-0.1-0.4-0.2-1.1-0.1c-0.4,0-5.7,0.3-6.7-2.6c-1.3-3.6,1.3-4.5,2.5-5l0.3-0.1c1.3-0.5,14.6-4.3,17.2-4.5c0.3,0,0.6-0.1,1-0.1
			c0.5-0.1,1-0.1,1.5-0.1c0.8,0,1.4,0.2,1.8,0.6c2,1.6,1.9,4.1,1.8,6.1c3.4-3.2,8.9-6.8,16.6-7.4v0c0.5-0.1,1.6-0.2,3.7-0.2
			c0.2,0,0.4,0,0.6,0c2.6,0.1,5,0.4,5.6,0.5c7.7,1.1,13.1,4,17.6,9.5C408.4,137.4,411.5,143,411.4,151.2z M247,111.5l-11.6,66.8l0,0
			c-0.1,0.5-0.4,2.5-0.4,2.6c-0.3,1.7-2.2,2.9-3.6,2.9l-0.1,0c-3.7,0-7.8-5.5-8-5.7l-0.4-0.6c-4.5-5.8-29.7-44.7-34.5-52.2l-7,41
			c0,0.1-1.3,6.2,2.1,7.7c5.3,2.3,5.3,4.2,4.8,5.9c-0.2,0.8-0.7,1.8-2.7,2.1c-0.1,0-0.3,0.1-0.5,0.1c-0.1,0-0.1,0-0.1,0l-0.1,0
			c-0.5,0-1-0.1-1.5-0.1c-0.5-0.1-0.9-0.1-1.4-0.2l-0.4,0c-1.3-0.1-5.2-0.4-11-0.4c-3.9,0-7.9,0.3-10.6,0.6
			c-1.2,0.1-2.2,0.2-2.9,0.2l-0.1,0c0,0-0.2,0-0.6,0c-0.7,0-2-0.1-2.9-1.1c-0.7-0.7-1-1.8-0.8-3.2c0.2-1.9,2.6-2.5,5-3.1l0.2-0.1
			c4.9-1.2,6.6-6.9,7.1-9.3c0-0.1,0-0.1,0-0.2c1-5.6,3.2-19.2,5.1-31.2c1.8-11.2,3.4-20.9,3.8-23.1c0.7-3.8-0.5-6.5-3.5-8.4l-0.1,0
			c-1.4-0.7-2.1-1-3.4-1.8c-0.9-0.6-1.8-2-1.8-3.1c0.1-1.2,0.9-2.2,2.1-2.6l0,0l0.2,0c0.1,0,0.1,0,0.2,0l0.1,0c0,0,1-0.2,2.6-0.3
			l0,0l0,0l0,0l0,0l0.1,0c2-0.2,4.2-0.3,6.3-0.3c0.7,0,1.4,0,2.1,0c0.6,0,1.2,0,1.6,0l0.2,0c0.6,0,1.7,0,3,0.2
			c0.6,0.1,0.9,0.1,0.9,0.1v0c9.4,1.5,17.9,9.4,27.7,25.7c3.6,5.9,8,13,11.5,18.8c1.3,2,2.4,3.8,3.3,5.3l5.6-33.4c0-0.1,1-7-3.8-9
			c-2.7-1.1-4.3-2.9-4.1-4.8c0.3-2.1,1.9-3.2,4.3-2.9l0.1,0c0.3,0,0.6,0.1,0.9,0.1c0.5,0.1,0.9,0.1,1.5,0.2l0.4,0
			c1.3,0.1,5.2,0.4,11,0.4c3.9,0,7.9-0.3,10.6-0.6c1.5-0.1,2.6-0.2,3.2-0.2c0.2,0,0.4,0,0.5,0c0,0,0,0,0,0c1.1,0,2,0.6,2.4,1.6l0,0
			l0.1,0.3c0.5,2.8-1.5,4.8-5.8,5.9c-5.5,1.4-6.4,8.9-6.4,8.9L247,111.5L247,111.5z M495.9,167.7c-0.4-0.1-0.8-0.2-1.1-0.2h-0.1
			c-1.2,0-2.2,0.6-3,1.1c-0.7,0.5-1.4,0.9-2.2,0.9c-0.2,0-0.3-0.1-0.4-0.2c-1-1.2-0.3-5.7,0-7.4l0.1-0.5c0.4-2.5,0.8-5.5,1.4-9.3
			c0.3-2,0.6-3.9,0.9-5.8c0.7-4.8,2.5-14.4,3.6-19.4c3-13.7,6.4-22.7,8-27c0.8-2.1,1-2.8,1-3.1c0-0.7-0.1-2.8-1.8-3.7
			c-0.3-0.2-0.7-0.2-1.1-0.2c-2,0-5.1,2-6.7,3.2c-13,9.6-18.3,26.3-20.1,32.5c-0.2-0.1-0.4-0.2-0.6-0.3c-0.2-0.1-0.5-0.2-0.7-0.3
			c-5.2-2.4-12.3-2.8-12.5-2.8c0,0-1-0.1-2.6-0.1h-0.2c-1.3,0-2.6,0.1-4,0.2c-6.8,0.5-11.4,2-12.7,2.5c-1.4,0.5-3.2,1.2-4.7,2
			c-7.8,3.7-13.5,9.6-16.9,17.3c-0.7,1.9-6.6,18.6,6.6,29.4c0.2,0.2,0.5,0.4,0.7,0.6l0.3,0.2c0.4,0.3,0.8,0.6,1.2,0.8l0.4,0.3
			c0.2,0.1,0.3,0.2,0.5,0.3c1.6,1,3.2,1.8,5,2.5l0.1,0h0c1.4,0.6,3.6,1.2,6.1,1.8c1.7,0.4,5.4,0.7,6.9,0.7h0.1c0.1,0,0.2,0,0.3,0
			c8.6-0.3,14.1-2.3,17.5-4.2l0,0l0.9-0.5c2-1.2,3.2-2.5,4-3.3c0.2,0.3,0.3,0.6,0.4,0.7l0,0c1.1,2,5,5.7,11.6,5.8c1,0,2,0,3.1-0.2
			c3.8-0.5,10.5-2.3,12.6-9.2c0.3-0.9,0.6-2.6-0.1-3.8C497.2,168.4,496.7,167.9,495.9,167.7z M440.5,156c0.1-1.5,0.3-2.9,0.6-4.3
			l0-0.2c0.5-1.7,1.2-3.2,2.1-4.7c6.2-10.6,18-11.3,18.2-11.3c1-0.1,2-0.2,2.9-0.2c5.8,0,7.4,2.5,7.8,3.6c0,0.3,0,0.6,0,0.8
			c0,1.1-1.2,11.9-2,16.5c-0.3,1.8-1.1,5.3-2.7,8.2c-0.6,1-1.2,1.9-1.9,2.6c-3.8,3.9-6.5,5.3-11.2,5.9c-0.5,0.1-1.1,0.1-1.8,0.1
			c-2.3,0-4.5-0.8-6.8-2.6C443.1,168.4,440.2,163.4,440.5,156z M447.2,183L447.2,183L447.2,183L447.2,183z M638.5,164.4
			c0.1,4.1-2.2,8.6-6,12c-3.5,3.1-8.5,5.5-14,6.7c-1.3,0.3-6.2,1.2-12.3,1.2h0c-4.5,0-8.7-0.5-12.3-1.6l0,0l-1.1-0.3
			c-3.2-1-5.8-2.4-7.7-4.1c-0.4-0.4-0.8-0.7-1-1c0,0-0.1-0.1-0.1-0.2c-2.6-3-2.9-6.8-1-10.2c1.2-2.2,2.9-3.8,4.9-4.6
			c3.5-1.4,6.8-1.4,7.8-1.5l0.2,0c0.1,0,0.3,0,0.4,0c1.4,0,4.1,0.4,5.2,1.8c0.4,0.6,0.6,1.2,0.4,1.9c-0.1,0.4-0.4,1-1.3,1.5
			c-2.5,1.3-4.3,2.5-4.6,3.7c-0.2,0.6,0,1.2,0.4,2c0.9,1.5,3.9,2.4,8.3,2.4l0.2,0c4.5,0,8.1-1.2,9.9-3.3c0.8-0.9,1.2-2,1.1-3.1
			c0-0.3-0.1-0.7-0.4-1.2c-2-3.9-7.5-9-17.4-16c-0.3-0.2-0.7-0.5-1-0.7c-6.1-4.3-5.9-7.9-5.9-9.1l0-0.1c0-0.1,0-0.1,0-0.2
			c0-1.5,0.4-2.5,0.5-2.5l0.1-0.2c2.4-8,11.6-10.4,16.9-11.1c2-0.3,3.5-0.3,4.3-0.3l0.3,0c0.9,0,1.8-0.1,2.6-0.1
			c4.4,0,7.7,0.4,9.1,0.8c0.9,0.2,1.6,0.3,2.3,0.3c2.1,0,2.9-1.1,3.5-2l0.1-0.2c0.5-0.7,1.7-1.6,3.2-1.5l0.2,0
			c1.6,0.1,2.5,0.9,2.3,4.6c-0.1,2.6-0.8,10.5-1,12.1c-0.1,1.4-0.5,2.4-1.1,2.8c-0.3,0.2-1,0.6-2.1,0.5c-1.5-0.1-2.7-2.2-2.9-2.7
			l0,0c-0.8-2.1-4-4.6-10.4-4.6l-0.4,0c-3.3,0.1-4.4,0.6-4.8,1.1c-0.2,0.3-0.2,0.6-0.2,0.9l0,0.1c0.1,1,1.9,2.2,3.4,3.2
			c0.6,0.4,1.1,0.7,1.6,1.1c3.2,2.4,5.7,4.2,7.7,5.7c2.2,1.6,3.9,2.8,5.2,3.9C634.4,154.3,638.4,157.5,638.5,164.4z M584.2,127.7
			c-0.4,0.2-1.1,0.4-1.7,0.6c-0.3,0.1-0.5,0.1-0.7,0.1c-0.7,0-1.3-0.1-1.6-0.5c-1.1-1-0.7-2.3-0.4-2.8c3.8-5.5,2.9-13.9,1.8-18
			l0-0.1l0,0l0-0.4c-0.2-1-0.3-1.9-0.3-2.8c0-4.4,2.7-6.1,3-6.3c0.1-0.1,0.3-0.2,0.7-0.4l0,0l0.2-0.1c0.1-0.1,0.6-0.2,0.9-0.3
			c0.2-0.1,0.4-0.1,0.5-0.2c0.1,0,0.2-0.1,0.3-0.1c0.1,0,0.1,0,0.3,0c1.3-0.2,3.3-0.3,5.4,0.6c0.2,0.1,0.3,0.1,0.4,0.2
			c1,0.5,2,1.3,2.8,2.2c0.7,1,1.2,2.1,1.6,3.4c0.4,1.7,0.5,3.8,0.2,6.1c0,0-0.4,2.9-1,4.8l-0.6,2c-0.6,1.5-0.9,2.2-1.7,3.5
			c-0.1,0.1-0.2,0.4-0.4,0.7c-0.1,0.2-0.2,0.4-0.3,0.5c-0.6,0.9-0.9,1.3-1.8,2.3c-0.2,0.2-0.4,0.4-0.7,0.7l-0.3,0.3
			c-0.5,0.5-1.2,1.1-2,1.7C586.7,126.6,585.2,127.4,584.2,127.7L584.2,127.7z M570.6,133.1c-7.5-7.4-18.8-8.5-24.8-8.5
			c-3.2,0-5.3,0.3-5.6,0.3c-14.6,2.2-25.3,7.7-31.9,16.3c-6.7,8.8-6.5,17.6-6.3,20.1c1.1,12.3,8.4,19.6,21.7,21.8l0,0
			c0.2,0,4.1,0.7,9.9,0.7c6.9,0,13.1-1,18.5-3c5.8-2,9.6-5.1,9.8-5.2l0,0c7.4-5.3,10.6-11.3,10.7-11.6
			C577.2,155.4,580.6,143,570.6,133.1L570.6,133.1z M524,161.4c-0.1-0.5-0.1-1-0.1-1.6l0-0.1c0-0.1,0-0.1,0-0.2
			c0-2.9,1.2-7.3,1.6-8.3l0.1-0.2c1.1-3.2,1.6-4.5,3.2-6.8c2.6-3.8,3.8-5.1,6.6-7c2.5-1.7,5.9-2,6.2-2.1l0.1,0
			c0.4-0.1,1.2-0.1,2.1-0.1c1,0,1.9,0.1,2.3,0.1l0.1,0c0.3,0,2.9,0.3,5.3,2.6c2.5,2.4,3.9,5.7,4.2,9.8c0.1,2.1,0,3.8-0.5,6.6
			c-0.9,5-2.7,8.4-4.1,10.4c-2.1,3.1-3.9,5.2-6.8,6.8c-1.4,0.8-4,2.3-8.3,2.3c-1.1,0-2.3-0.1-3.4-0.3c-1.4-0.2-3.3-1.4-3.4-1.5
			c-0.1-0.1-0.8-0.7-1.1-0.9C525.7,168.8,524.5,165.7,524,161.4z"/>
	</g>
	<g>
		<g>
			<path id="barci_black_2_" d="M108.1,103.1c0.2-4.9,0.8-16.3,1.4-25.4c1.1,1.4,2.7,2.6,4.9,2.1c1.1-0.2,3.7-0.9,3.9-4.7
				c0.1-2.2-1.5-4.9-5.9-9.5c-0.3-0.3-0.6-0.6-1-0.9c2.5-2.3,6.5-6.3,8.4-9.8l0.5-0.9l-0.8-0.7c-4-3.5-9.7-6.6-12.3-7.9
				c-1.2-0.7-2.3-1.3-3.2-1.7c0.2-0.1,0.3-0.3,0.5-0.4c2.4-2.4,12.5-13.8,6.1-29.2C104.5-0.9,88.7-0.8,80.3,1.1
				c-3.1,0.8-5.9,2.4-7.2,3.1c-5.4,3.6-9.7,9.1-11,15.6c-1.4,7.1,0.8,15,6.1,20c1.1,1,1.5,1.3,1.7,1.1c-0.1,0.1,0.2-1.3,2.5-3.4
				c0.7-0.6,4.7-4.2,10.3-2.3c3.2,1.1,4.6,2.7,5.6,5c0.5,1.1,0.8,2.5,0.7,3.8c-0.1,0.1-0.2,0.1-0.3,0.1c-4.2,2.5-8.6,8.5-7.5,22.3
				c1.2,16.1,2.4,29.2,3.1,36.7c-2.5,0.1-4.8,0.3-6.9,0.7c3.4-14.5,2.7-31.4-13.4-41.4c-15.3-9.5-36.8-6.5-50.4,5
				C0.2,78.8-2.9,98.6,4.4,114.5c0.7,1.4,1.4,2.8,2.2,4.1c2.3,4,5.3,7.5,9,10.3c3.7,2.8,8,4.8,12.5,6.2c2.8,0.9,5.6,1.5,8.4,2.1
				c0.4,0.1,0.6-0.3,0.4-0.6c-0.2-0.3-0.3-0.7-0.4-0.8c-0.8-1.4-1.4-3-1.7-4.6c-1-5.8,0.8-12.6,5.7-16.3c4.6-3.5,11.1-3.5,15.7,0
				c0.8,0.6,1.5,1.3,2.1,2c-2.7,5.8-2.6,12.2-1.9,16.4c0.5,2.9,1.1,3.9,1.5,5c2.5,7.6,9.2,15.7,11.5,18.7
				c3.5,4.5,13.5,14.9,17.2,18.7v15.5c-1.3,0.8-9.9,6.2-13.6,14.2c-0.4,0.8,0.4,1.7,1.3,1.6c6.5-1,14.7-1.5,22.6-1.6
				c7.9,0,15.4,0.6,21.8,1.6c0.9,0.1,1.7-0.8,1.3-1.6c-3.7-8-12.3-13.4-13.6-14.2v-15.5c3.4-3.8,12.8-14.3,16.1-18.8
				c2.2-3,11.2-14.5,12.8-23.7C137.1,124.1,135.5,104.2,108.1,103.1z M116.1,54.9c-1.6,2.4-4.2,4.8-6.1,6.4c-0.1-5-1-8.8-2.3-11.5
				C112.6,51.5,116.1,54.9,116.1,54.9z"/>
		</g>
		<path id="barci_red_2_" class="st0" d="M114.8,73.8c0.5,1,0.2,2.1-0.7,2.6c-0.8,0.4-1.8,0.1-2.3-0.6l0,0c0,0,0,0-0.1-0.1
			c0-0.1-0.1-0.1-0.1-0.2c0-0.1-0.1-0.1-0.1-0.2c-0.2-0.4-0.4-1-0.6-1.8c-0.3-1.2-0.8-3.7-1.1-4.9c-0.1-0.5-0.1-0.6-0.1-0.6
			c0.1,0,0.1,0.1,0.4,0.4c0.9,0.9,2.8,2.8,3.4,3.7c0.6,0.7,0.9,1.2,1.1,1.5C114.7,73.6,114.8,73.7,114.8,73.8z M66.5,69.8
			c-4.5-4.3-10.6-7-16.6-8c-16.2-2.7-34.1,4.4-41.4,19.5c-6.2,12.8-3.5,30.5,6.5,40.8c4.6,4.7,9.3,7.3,15.3,8.6c0.2,0-0.8-4,0.2-8.3
			c1.1-4.9,3.5-10.7,10.4-13.4c10.5-4.1,16.6,1,20.2,3.5c2.3-2.6,4-3.6,6.4-4.9c1.9-1,3.1-1.4,4.9-1.8c2.1-4.7,3-13.6,2.1-18.5
			C73.4,81,72.5,75.5,66.5,69.8z M106.7,120.4c-7.2-0.7-10.2,5.8-10.3,6c-0.1-0.2-3.1-6.7-10.3-6c-7.4,0.7-12.3,9.7-2.3,23.6
			c9.6,13.5,12.5,14.1,12.6,14.1l0,0l0,0l0,0l0,0c0.2,0,3-0.7,12.6-14.1C119,130,114,121,106.7,120.4z M93.4,41.7l0,0.2
			c0,0.2,0,0.4,0,0.5l0,0.1c0,0,0,0,0,0c2.4-0.4,4.7-0.4,6.6-0.1l0,0c4.1-3.3,7-8.3,8.1-14.2c1.2-6.5-0.3-12.7-4.1-16.9
			c-4-4.5-9.2-6.8-15.5-6.8c-0.3,0-0.6,0-0.9,0c-6.1,0.1-9.8,1.5-14.3,5.2c-1.8,1.4-5.9,5.5-6.5,11.9c-0.3,3.5,0.1,6.1,0.5,7.6
			c0.1,0.3,0.1,0.5,0.2,0.8c0.4,1.4,0.6,2.4,2.1,4.5c0,0,0,0,0.1-0.1c1.8-1.7,3.8-2.9,6.1-3.5c1.6-0.4,3.3-0.6,5.1-0.6
			c0.7,0,5.2,0.6,8.3,3.1C93.1,36.8,93.3,40,93.4,41.7z"/>
		<g>
			<path id="barci_white_2_" class="st1" d="M95.2,68.7c0.6-1.2,1.9-1.7,3-1.2c1,0.5,1.4,1.6,1.1,2.6l0,0c0,0,0,0.1-0.1,0.1
				c0,0.1-0.1,0.2-0.1,0.3c0,0.1-0.1,0.2-0.1,0.2c-0.2,0.4-0.6,1.1-1.2,1.8c-0.9,1.1-2.9,3.4-3.8,4.5c-0.4,0.4-0.4,0.5-0.5,0.5
				c-0.1,0,0-0.2,0-0.7c0.2-1.5,0.7-4.6,1-5.8c0.3-1,0.5-1.7,0.7-2.1C95.1,68.9,95.2,68.8,95.2,68.7z M102.9,55.5
				c0,3.4-2.8,6.2-6.2,6.2s-6.2-2.8-6.2-6.2c0-3.4,2.8-6.2,6.2-6.2S102.9,52.1,102.9,55.5z M99.5,55.5c0-1.5-1.2-2.8-2.8-2.8
				c-1.5,0-2.8,1.3-2.8,2.8s1.2,2.8,2.8,2.8C98.3,58.3,99.5,57.1,99.5,55.5z M107.8,49.8c1.3,2.8,2.2,6.5,2.3,11.5
				c1.8-1.6,4.5-4,6.1-6.4C116.1,54.9,112.6,51.5,107.8,49.8z"/>
			<g>
				<path class="st1" d="M54,68.6c-1.7,0-3.1,1.4-3.1,3.1s1.4,3.1,3.1,3.1c1.7,0,3.1-1.4,3.1-3.1S55.7,68.6,54,68.6z"/>
				<path class="st1" d="M62.6,82.4c1.7,0,3.1-1.4,3.1-3.1c0-1.7-1.4-3.1-3.1-3.1c-1.7,0-3.1,1.4-3.1,3.1
					C59.5,81,60.9,82.4,62.6,82.4z"/>
				<path class="st1" d="M65.6,87.1c-1.7,0-3.1,1.4-3.1,3.1c0,1.7,1.4,3.1,3.1,3.1c1.7,0,3.1-1.4,3.1-3.1
					C68.7,88.4,67.3,87.1,65.6,87.1z"/>
				<path class="st1" d="M22.1,115.4c-1.7,0-3.1,1.4-3.1,3.1c0,1.7,1.4,3.1,3.1,3.1c1.7,0,3.1-1.4,3.1-3.1
					C25.1,116.8,23.7,115.4,22.1,115.4z"/>
				<path class="st1" d="M15.5,106.4c-1.7,0-3.1,1.4-3.1,3.1c0,1.7,1.4,3.1,3.1,3.1c1.7,0,3.1-1.4,3.1-3.1
					C18.6,107.8,17.2,106.4,15.5,106.4z"/>
				<path class="st1" d="M16,98.8c0-1.7-1.4-3.1-3.1-3.1c-1.7,0-3.1,1.4-3.1,3.1c0,1.7,1.4,3.1,3.1,3.1C14.6,101.8,16,100.4,16,98.8
					z"/>
				<path class="st1" d="M14.4,90.7c1.7,0,3.1-1.4,3.1-3.1c0-1.7-1.4-3.1-3.1-3.1c-1.7,0-3.1,1.4-3.1,3.1
					C11.3,89.3,12.7,90.7,14.4,90.7z"/>
				<path class="st1" d="M20.3,81.1c1.7,0,3.1-1.4,3.1-3.1c0-1.7-1.4-3.1-3.1-3.1c-1.7,0-3.1,1.4-3.1,3.1
					C17.2,79.7,18.6,81.1,20.3,81.1z"/>
				<path class="st1" d="M30.3,68.5c-1.7,0-3.1,1.4-3.1,3.1c0,1.7,1.4,3.1,3.1,3.1c1.7,0,3.1-1.4,3.1-3.1
					C33.3,69.8,32,68.5,30.3,68.5z"/>
				<path class="st1" d="M42.2,66.1c-1.7,0-3.1,1.4-3.1,3.1c0,1.7,1.4,3.1,3.1,3.1c1.7,0,3.1-1.4,3.1-3.1
					C45.3,67.5,43.9,66.1,42.2,66.1z"/>
				<path class="st1" d="M63.5,97.9c-1.7,0-3.1,1.4-3.1,3.1c0,1.7,1.4,3.1,3.1,3.1c1.7,0,3.1-1.4,3.1-3.1
					C66.5,99.3,65.1,97.9,63.5,97.9z"/>
			</g>
		</g>
	</g>
</g>
</svg>
