<svg width="121" height="36" viewBox="0 0 121 36" fill="none" xmlns="http://www.w3.org/2000/svg">
<rect width="121" height="36" rx="4" fill="black"/>
<path d="M25.6115 18.16C25.5475 18.192 25.5475 18.224 25.6115 18.256C26.6995 18.768 27.2435 19.648 27.2435 20.896C27.2435 21.9093 26.9022 22.6827 26.2195 23.216C25.5475 23.7387 24.6675 24 23.5795 24H19.5475C19.4942 24 19.4462 23.984 19.4035 23.952C19.3715 23.9093 19.3555 23.8613 19.3555 23.808V12.992C19.3555 12.9387 19.3715 12.896 19.4035 12.864C19.4462 12.8213 19.4942 12.8 19.5475 12.8H23.4515C24.6142 12.8 25.5102 13.0507 26.1395 13.552C26.7688 14.0533 27.0835 14.8107 27.0835 15.824C27.0835 16.944 26.5928 17.7227 25.6115 18.16ZM21.2915 14.4C21.2382 14.4 21.2115 14.4267 21.2115 14.48V17.44C21.2115 17.4933 21.2382 17.52 21.2915 17.52H23.4515C24.0168 17.52 24.4595 17.3867 24.7795 17.12C25.1102 16.8427 25.2755 16.464 25.2755 15.984C25.2755 15.4933 25.1102 15.1093 24.7795 14.832C24.4595 14.544 24.0168 14.4 23.4515 14.4H21.2915ZM23.5795 22.384C24.1342 22.384 24.5715 22.2347 24.8915 21.936C25.2222 21.6373 25.3875 21.232 25.3875 20.72C25.3875 20.1973 25.2222 19.792 24.8915 19.504C24.5608 19.2053 24.1128 19.056 23.5475 19.056H21.2915C21.2382 19.056 21.2115 19.0827 21.2115 19.136V22.304C21.2115 22.3573 21.2382 22.384 21.2915 22.384H23.5795ZM33.824 16.016C33.824 15.9627 33.84 15.92 33.872 15.888C33.9147 15.8453 33.9627 15.824 34.016 15.824H35.472C35.5253 15.824 35.568 15.8453 35.6 15.888C35.6427 15.92 35.664 15.9627 35.664 16.016V23.808C35.664 23.8613 35.6427 23.9093 35.6 23.952C35.568 23.984 35.5253 24 35.472 24H34.016C33.9627 24 33.9147 23.984 33.872 23.952C33.84 23.9093 33.824 23.8613 33.824 23.808V23.296C33.824 23.264 33.8133 23.2427 33.792 23.232C33.7707 23.2213 33.7493 23.232 33.728 23.264C33.2907 23.8293 32.6347 24.112 31.76 24.112C30.9493 24.112 30.2667 23.8773 29.712 23.408C29.168 22.9387 28.896 22.272 28.896 21.408V16.016C28.896 15.9627 28.912 15.92 28.944 15.888C28.9867 15.8453 29.0347 15.824 29.088 15.824H30.56C30.6133 15.824 30.656 15.8453 30.688 15.888C30.7307 15.92 30.752 15.9627 30.752 16.016V20.88C30.752 21.3813 30.88 21.7813 31.136 22.08C31.4027 22.3787 31.7707 22.528 32.24 22.528C32.72 22.528 33.104 22.3787 33.392 22.08C33.68 21.7813 33.824 21.3813 33.824 20.88V16.016ZM41.9843 17.136C41.9843 17.1893 41.9629 17.2373 41.9203 17.28C41.8883 17.312 41.8456 17.328 41.7923 17.328H40.1603C40.1069 17.328 40.0803 17.3547 40.0803 17.408V21.264C40.0803 21.6693 40.1656 21.9627 40.3363 22.144C40.5176 22.3253 40.8003 22.416 41.1843 22.416H41.6643C41.7176 22.416 41.7603 22.4373 41.7923 22.48C41.8349 22.512 41.8563 22.5547 41.8563 22.608V23.808C41.8563 23.9253 41.7923 23.9947 41.6643 24.016L40.8323 24.032C39.9896 24.032 39.3603 23.888 38.9443 23.6C38.5283 23.312 38.3149 22.768 38.3043 21.968V17.408C38.3043 17.3547 38.2776 17.328 38.2243 17.328H37.3123C37.2589 17.328 37.2109 17.312 37.1683 17.28C37.1363 17.2373 37.1203 17.1893 37.1203 17.136V16.016C37.1203 15.9627 37.1363 15.92 37.1683 15.888C37.2109 15.8453 37.2589 15.824 37.3123 15.824H38.2243C38.2776 15.824 38.3043 15.7973 38.3043 15.744V13.872C38.3043 13.8187 38.3203 13.776 38.3523 13.744C38.3949 13.7013 38.4429 13.68 38.4963 13.68H39.8883C39.9416 13.68 39.9843 13.7013 40.0163 13.744C40.0589 13.776 40.0803 13.8187 40.0803 13.872V15.744C40.0803 15.7973 40.1069 15.824 40.1603 15.824H41.7923C41.8456 15.824 41.8883 15.8453 41.9203 15.888C41.9629 15.92 41.9843 15.9627 41.9843 16.016V17.136ZM47.9686 17.136C47.9686 17.1893 47.9473 17.2373 47.9046 17.28C47.8726 17.312 47.83 17.328 47.7766 17.328H46.1446C46.0913 17.328 46.0646 17.3547 46.0646 17.408V21.264C46.0646 21.6693 46.15 21.9627 46.3206 22.144C46.502 22.3253 46.7846 22.416 47.1686 22.416H47.6486C47.702 22.416 47.7446 22.4373 47.7766 22.48C47.8193 22.512 47.8406 22.5547 47.8406 22.608V23.808C47.8406 23.9253 47.7766 23.9947 47.6486 24.016L46.8166 24.032C45.974 24.032 45.3446 23.888 44.9286 23.6C44.5126 23.312 44.2993 22.768 44.2886 21.968V17.408C44.2886 17.3547 44.262 17.328 44.2086 17.328H43.2966C43.2433 17.328 43.1953 17.312 43.1526 17.28C43.1206 17.2373 43.1046 17.1893 43.1046 17.136V16.016C43.1046 15.9627 43.1206 15.92 43.1526 15.888C43.1953 15.8453 43.2433 15.824 43.2966 15.824H44.2086C44.262 15.824 44.2886 15.7973 44.2886 15.744V13.872C44.2886 13.8187 44.3046 13.776 44.3366 13.744C44.3793 13.7013 44.4273 13.68 44.4806 13.68H45.8726C45.926 13.68 45.9686 13.7013 46.0006 13.744C46.0433 13.776 46.0646 13.8187 46.0646 13.872V15.744C46.0646 15.7973 46.0913 15.824 46.1446 15.824H47.7766C47.83 15.824 47.8726 15.8453 47.9046 15.888C47.9473 15.92 47.9686 15.9627 47.9686 16.016V17.136ZM52.9328 24.128C52.0901 24.128 51.3648 23.9147 50.7568 23.488C50.1594 23.0613 49.7381 22.4693 49.4928 21.712C49.3114 21.136 49.2208 20.528 49.2208 19.888C49.2208 19.2053 49.3061 18.5973 49.4768 18.064C49.7221 17.3173 50.1488 16.736 50.7568 16.32C51.3648 15.904 52.0954 15.696 52.9488 15.696C53.7594 15.696 54.4581 15.904 55.0448 16.32C55.6421 16.736 56.0634 17.312 56.3088 18.048C56.5008 18.56 56.5968 19.168 56.5968 19.872C56.5968 20.544 56.5061 21.152 56.3248 21.696C56.0794 22.4533 55.6581 23.0507 55.0608 23.488C54.4634 23.9147 53.7541 24.128 52.9328 24.128ZM52.9328 22.528C53.3274 22.528 53.6634 22.416 53.9408 22.192C54.2288 21.968 54.4368 21.6533 54.5648 21.248C54.6714 20.896 54.7248 20.448 54.7248 19.904C54.7248 19.328 54.6714 18.88 54.5648 18.56C54.4474 18.1547 54.2448 17.8453 53.9568 17.632C53.6688 17.408 53.3168 17.296 52.9008 17.296C52.5061 17.296 52.1648 17.408 51.8768 17.632C51.5888 17.8453 51.3808 18.1547 51.2528 18.56C51.1461 18.9333 51.0928 19.3813 51.0928 19.904C51.0928 20.4267 51.1461 20.8747 51.2528 21.248C51.3701 21.6533 51.5728 21.968 51.8608 22.192C52.1594 22.416 52.5168 22.528 52.9328 22.528ZM62.2714 15.696C63.1354 15.696 63.8234 15.952 64.3354 16.464C64.858 16.976 65.1194 17.6747 65.1194 18.56V23.808C65.1194 23.8613 65.098 23.9093 65.0554 23.952C65.0234 23.984 64.9807 24 64.9274 24H63.4554C63.402 24 63.354 23.984 63.3114 23.952C63.2794 23.9093 63.2634 23.8613 63.2634 23.808V18.944C63.2634 18.4533 63.1247 18.0587 62.8474 17.76C62.57 17.4507 62.202 17.296 61.7434 17.296C61.2847 17.296 60.9114 17.4453 60.6234 17.744C60.346 18.0427 60.2074 18.4373 60.2074 18.928V23.808C60.2074 23.8613 60.186 23.9093 60.1434 23.952C60.1114 23.984 60.0687 24 60.0154 24H58.5434C58.49 24 58.442 23.984 58.3994 23.952C58.3674 23.9093 58.3514 23.8613 58.3514 23.808V16.016C58.3514 15.9627 58.3674 15.92 58.3994 15.888C58.442 15.8453 58.49 15.824 58.5434 15.824H60.0154C60.0687 15.824 60.1114 15.8453 60.1434 15.888C60.186 15.92 60.2074 15.9627 60.2074 16.016V16.528C60.2074 16.56 60.218 16.5813 60.2394 16.592C60.2607 16.6027 60.2767 16.592 60.2874 16.56C60.7247 15.984 61.386 15.696 62.2714 15.696ZM70.4496 24C70.3963 24 70.3483 23.984 70.3056 23.952C70.2736 23.9093 70.2576 23.8613 70.2576 23.808V12.992C70.2576 12.9387 70.2736 12.896 70.3056 12.864C70.3483 12.8213 70.3963 12.8 70.4496 12.8H71.9216C71.975 12.8 72.0176 12.8213 72.0496 12.864C72.0923 12.896 72.1136 12.9387 72.1136 12.992V23.808C72.1136 23.8613 72.0923 23.9093 72.0496 23.952C72.0176 23.984 71.975 24 71.9216 24H70.4496ZM77.2057 15.696C77.8778 15.696 78.4698 15.8133 78.9818 16.048C79.4938 16.2827 79.8884 16.608 80.1658 17.024C80.4431 17.4293 80.5818 17.8933 80.5818 18.416V23.808C80.5818 23.8613 80.5604 23.9093 80.5178 23.952C80.4858 23.984 80.4431 24 80.3898 24H78.9178C78.8644 24 78.8164 23.984 78.7738 23.952C78.7418 23.9093 78.7258 23.8613 78.7258 23.808V23.296C78.7258 23.264 78.7151 23.248 78.6938 23.248C78.6724 23.2373 78.6511 23.2427 78.6298 23.264C78.1071 23.84 77.3498 24.128 76.3578 24.128C75.5578 24.128 74.8964 23.9253 74.3738 23.52C73.8618 23.1147 73.6058 22.512 73.6058 21.712C73.6058 20.88 73.8938 20.2347 74.4698 19.776C75.0564 19.3067 75.8778 19.072 76.9338 19.072H78.6458C78.6991 19.072 78.7258 19.0453 78.7258 18.992V18.608C78.7258 18.192 78.6031 17.872 78.3578 17.648C78.1124 17.4133 77.7444 17.296 77.2538 17.296C76.8484 17.296 76.5178 17.3707 76.2618 17.52C76.0164 17.6587 75.8618 17.856 75.7978 18.112C75.7658 18.24 75.6911 18.2933 75.5738 18.272L74.0218 18.08C73.9684 18.0693 73.9204 18.0533 73.8778 18.032C73.8458 18 73.8351 17.9627 73.8458 17.92C73.9311 17.2693 74.2778 16.736 74.8858 16.32C75.5044 15.904 76.2778 15.696 77.2057 15.696ZM76.8218 22.656C77.3444 22.656 77.7924 22.5173 78.1658 22.24C78.5391 21.9627 78.7258 21.6107 78.7258 21.184V20.432C78.7258 20.3787 78.6991 20.352 78.6458 20.352H77.3018C76.7364 20.352 76.2884 20.4587 75.9578 20.672C75.6378 20.8853 75.4778 21.1893 75.4778 21.584C75.4778 21.9253 75.6004 22.192 75.8458 22.384C76.1018 22.5653 76.4271 22.656 76.8218 22.656ZM89.3411 17.936C89.5225 18.5333 89.6131 19.184 89.6131 19.888C89.6131 20.6453 89.5118 21.312 89.3091 21.888C89.0745 22.592 88.6958 23.1413 88.1731 23.536C87.6505 23.9307 87.0105 24.128 86.2531 24.128C85.5065 24.128 84.8931 23.8453 84.4131 23.28C84.3918 23.248 84.3705 23.2373 84.3491 23.248C84.3278 23.2587 84.3171 23.28 84.3171 23.312V23.808C84.3171 23.8613 84.2958 23.9093 84.2531 23.952C84.2211 23.984 84.1785 24 84.1251 24H82.6531C82.5998 24 82.5518 23.984 82.5091 23.952C82.4771 23.9093 82.4611 23.8613 82.4611 23.808V12.992C82.4611 12.9387 82.4771 12.896 82.5091 12.864C82.5518 12.8213 82.5998 12.8 82.6531 12.8H84.1251C84.1785 12.8 84.2211 12.8213 84.2531 12.864C84.2958 12.896 84.3171 12.9387 84.3171 12.992V16.464C84.3171 16.496 84.3278 16.5173 84.3491 16.528C84.3705 16.5387 84.3918 16.5333 84.4131 16.512C84.8718 15.968 85.4798 15.696 86.2371 15.696C87.0265 15.696 87.6771 15.8933 88.1891 16.288C88.7118 16.6827 89.0958 17.232 89.3411 17.936ZM87.3251 21.76C87.5811 21.312 87.7091 20.6987 87.7091 19.92C87.7091 19.088 87.5491 18.4373 87.2291 17.968C86.9411 17.52 86.5145 17.296 85.9491 17.296C85.4265 17.296 85.0265 17.5307 84.7491 18C84.4825 18.4373 84.3491 19.072 84.3491 19.904C84.3491 20.7253 84.4718 21.344 84.7171 21.76C84.9945 22.272 85.4105 22.528 85.9651 22.528C86.2638 22.528 86.5305 22.464 86.7651 22.336C86.9998 22.1973 87.1865 22.0053 87.3251 21.76ZM98.2161 18.992C98.2588 19.2587 98.2801 19.5573 98.2801 19.888L98.2641 20.384C98.2641 20.512 98.2001 20.576 98.0721 20.576H93.0641C93.0108 20.576 92.9841 20.6027 92.9841 20.656C93.0161 21.008 93.0641 21.248 93.1281 21.376C93.3841 22.144 94.0081 22.5333 95.0001 22.544C95.7255 22.544 96.3015 22.2453 96.7281 21.648C96.7708 21.584 96.8241 21.552 96.8881 21.552C96.9308 21.552 96.9681 21.568 97.0001 21.6L97.9921 22.416C98.0881 22.4907 98.1041 22.576 98.0401 22.672C97.7095 23.1413 97.2668 23.504 96.7121 23.76C96.1681 24.016 95.5601 24.144 94.8881 24.144C94.0561 24.144 93.3468 23.9573 92.7601 23.584C92.1841 23.2107 91.7628 22.688 91.4961 22.016C91.2508 21.44 91.1281 20.64 91.1281 19.616C91.1281 18.9973 91.1921 18.496 91.3201 18.112C91.5335 17.3653 91.9335 16.7787 92.5201 16.352C93.1175 15.9147 93.8321 15.696 94.6641 15.696C96.7655 15.696 97.9495 16.7947 98.2161 18.992ZM94.6641 17.296C94.2695 17.296 93.9388 17.3973 93.6721 17.6C93.4161 17.792 93.2348 18.064 93.1281 18.416C93.0641 18.5973 93.0215 18.832 93.0001 19.12C92.9788 19.1733 93.0001 19.2 93.0641 19.2H96.3121C96.3655 19.2 96.3921 19.1733 96.3921 19.12C96.3708 18.8533 96.3388 18.6507 96.2961 18.512C96.2001 18.128 96.0081 17.8293 95.7201 17.616C95.4428 17.4027 95.0908 17.296 94.6641 17.296ZM100.168 24C100.115 24 100.067 23.984 100.024 23.952C99.9924 23.9093 99.9764 23.8613 99.9764 23.808V12.992C99.9764 12.9387 99.9924 12.896 100.024 12.864C100.067 12.8213 100.115 12.8 100.168 12.8H101.64C101.694 12.8 101.736 12.8213 101.768 12.864C101.811 12.896 101.832 12.9387 101.832 12.992V23.808C101.832 23.8613 101.811 23.9093 101.768 23.952C101.736 23.984 101.694 24 101.64 24H100.168Z" fill="#FFFEF6"/>
</svg>
